{"glyphs":{"0":{"ha":808,"x_min":56,"x_max":753,"o":"m 753 401 q 708 169 753 260 q 586 32 664 77 q 406 -14 507 -14 q 224 32 303 -14 q 101 169 145 77 q 56 401 56 260 l 56 586 q 100 818 56 726 q 223 956 144 910 q 404 1001 302 1001 q 585 956 506 1001 q 708 818 663 910 q 753 586 753 726 l 753 401 m 508 618 q 495 729 508 689 q 459 787 482 770 q 404 804 436 804 q 349 787 372 804 q 313 729 326 770 q 300 618 300 689 l 300 370 q 313 256 300 297 q 350 199 326 216 q 406 183 373 183 q 460 199 437 183 q 495 256 483 216 q 508 370 508 297 l 508 618 z "},"1":{"ha":808,"x_min":112,"x_max":577,"o":"m 577 0 l 332 0 l 332 699 l 112 640 l 112 832 l 555 987 l 577 987 l 577 0 z "},"2":{"ha":808,"x_min":37,"x_max":754,"o":"m 754 0 l 58 0 l 58 165 l 374 493 q 439 573 414 537 q 475 637 464 608 q 486 688 486 666 q 461 777 486 748 q 389 805 436 805 q 332 786 356 805 q 295 735 309 767 q 282 663 282 703 l 37 663 q 82 833 37 756 q 208 956 127 910 q 395 1002 288 1002 q 647 925 562 1002 q 732 711 732 849 q 703 577 732 640 q 621 451 675 515 q 492 310 568 387 l 378 197 l 754 197 l 754 0 z "},"3":{"ha":808,"x_min":29,"x_max":755,"o":"m 382 599 q 446 612 421 599 q 484 651 471 625 q 496 712 496 676 q 485 756 496 735 q 450 791 473 778 q 389 805 426 805 q 342 797 366 805 q 303 772 319 788 q 288 734 288 756 l 44 734 q 91 879 44 819 q 215 970 138 939 q 381 1002 292 1002 q 569 969 488 1002 q 695 874 650 937 q 741 718 741 811 q 716 620 741 665 q 649 542 692 575 q 549 489 606 508 q 424 471 491 471 l 269 471 l 269 599 l 382 599 m 269 535 l 424 535 q 558 519 497 535 q 663 471 618 503 q 731 391 707 439 q 755 279 755 343 q 706 120 755 186 q 572 21 656 55 q 380 -14 487 -14 q 256 3 319 -14 q 143 54 194 20 q 60 144 92 89 q 29 277 29 199 l 275 277 q 291 230 275 252 q 332 196 307 209 q 389 183 358 183 q 479 214 447 183 q 511 285 511 245 q 496 358 511 331 q 452 398 481 386 q 382 410 423 410 l 269 410 l 269 535 z "},"4":{"ha":808,"x_min":39,"x_max":766,"o":"m 766 203 l 54 203 l 39 361 l 429 987 l 622 987 l 416 635 l 270 399 l 766 399 l 766 203 m 672 0 l 428 0 l 428 987 l 672 987 l 672 0 z "},"5":{"ha":808,"x_min":48,"x_max":749,"o":"m 67 479 l 128 987 l 714 987 l 714 791 l 328 791 l 307 619 q 360 640 322 627 q 443 652 397 652 q 610 614 542 652 q 714 500 678 575 q 749 319 749 426 q 712 160 749 236 q 597 35 674 83 q 401 -14 520 -14 q 271 7 334 -14 q 157 68 208 28 q 77 162 106 107 q 50 286 48 218 l 295 286 q 326 212 297 240 q 399 183 354 183 q 465 205 442 183 q 496 263 488 228 q 505 338 505 299 q 491 415 505 383 q 449 463 478 446 q 373 479 420 479 q 299 463 326 479 q 262 431 273 446 l 67 479 z "},"6":{"ha":808,"x_min":54,"x_max":772,"o":"m 616 1004 l 616 804 l 604 804 q 484 788 540 804 q 387 740 429 772 q 322 654 345 707 q 298 529 298 602 l 298 349 q 311 255 298 292 q 350 201 324 218 q 415 183 376 183 q 473 202 448 183 q 513 254 498 221 q 528 329 528 288 q 512 409 528 377 q 469 458 496 441 q 407 475 441 475 q 338 457 366 475 q 297 413 311 439 q 284 361 284 387 l 227 429 q 242 505 226 463 q 292 584 258 546 q 376 646 326 621 q 493 670 426 670 q 645 625 583 670 q 740 503 707 581 q 772 328 772 426 q 727 153 772 231 q 603 31 682 76 q 422 -14 524 -14 q 276 13 343 -14 q 159 90 209 39 q 81 216 109 140 q 54 390 54 292 l 54 475 q 96 703 54 604 q 212 868 138 802 q 379 969 286 935 q 577 1004 473 1004 l 616 1004 z "},"7":{"ha":808,"x_min":34,"x_max":752,"o":"m 752 851 l 389 0 l 131 0 l 495 791 l 34 791 l 34 987 l 752 987 l 752 851 z "},"8":{"ha":808,"x_min":56,"x_max":751,"o":"m 751 274 q 706 115 751 178 q 584 19 661 51 q 406 -14 506 -14 q 227 19 306 -14 q 102 115 148 51 q 56 274 56 178 q 102 424 56 361 q 227 519 149 486 q 404 552 306 552 q 582 519 504 552 q 706 424 661 486 q 751 274 751 361 m 506 296 q 493 357 506 332 q 458 394 481 381 q 404 406 435 406 q 351 394 374 406 q 315 357 328 381 q 302 296 302 332 q 315 236 302 261 q 351 197 328 211 q 406 183 374 183 q 459 197 436 183 q 494 236 481 211 q 506 296 506 261 m 731 722 q 690 585 731 644 q 575 495 648 527 q 406 463 502 463 q 236 495 310 463 q 119 585 161 527 q 77 722 77 644 q 119 876 77 813 q 235 970 161 938 q 404 1002 309 1002 q 574 970 500 1002 q 689 876 648 938 q 731 722 731 813 m 487 707 q 478 760 487 738 q 450 793 469 781 q 404 805 432 805 q 358 793 376 805 q 331 760 340 781 q 322 707 322 738 q 331 653 322 676 q 358 616 340 629 q 406 603 377 603 q 452 616 434 603 q 478 653 470 629 q 487 707 487 676 z "},"9":{"ha":808,"x_min":53,"x_max":749,"o":"m 218 189 q 335 200 283 189 q 426 238 388 212 q 484 311 464 264 q 505 427 505 357 l 505 645 q 492 736 505 701 q 455 788 479 771 q 399 805 432 805 q 344 781 367 805 q 310 720 321 756 q 298 646 298 683 q 310 568 298 602 q 348 515 323 534 q 412 496 374 496 q 460 505 439 496 q 493 530 480 515 q 512 563 506 545 q 518 597 519 581 l 588 533 q 569 455 588 494 q 515 384 549 416 q 437 332 481 351 q 345 313 393 313 q 190 353 255 313 q 89 468 124 393 q 53 647 53 543 q 98 825 53 744 q 221 954 142 905 q 401 1002 300 1002 q 534 976 471 1002 q 646 900 597 951 q 721 773 694 848 q 749 596 749 697 l 749 514 q 722 318 749 404 q 647 169 695 232 q 533 65 599 106 q 388 4 467 24 q 222 -16 309 -16 l 205 -16 l 205 189 l 218 189 z "}," ":{"ha":347,"x_min":0,"x_max":0,"o":""},"A":{"ha":956,"x_min":-5,"x_max":960,"o":"m 269 0 l -5 0 l 357 987 l 530 987 l 500 749 l 269 0 m 455 749 l 422 987 l 596 987 l 960 0 l 687 0 l 455 749 m 684 165 l 178 165 l 178 371 l 684 371 l 684 165 z "},"B":{"ha":901,"x_min":70,"x_max":846,"o":"m 229 409 l 227 581 l 430 581 q 541 605 509 581 q 573 677 573 629 q 540 758 573 734 q 432 782 507 782 l 325 782 l 325 0 l 70 0 l 70 987 l 432 987 q 723 919 618 987 q 827 712 827 851 q 802 598 827 652 q 714 511 776 544 q 546 478 653 477 l 479 409 l 229 409 m 167 0 l 254 205 l 470 205 q 566 233 538 205 q 593 299 593 262 q 582 358 593 334 q 546 396 570 382 q 479 409 521 409 l 276 409 l 277 581 l 517 581 l 577 511 q 738 486 680 517 q 822 402 797 454 q 846 295 846 351 q 751 74 846 148 q 470 0 656 0 l 167 0 z "},"C":{"ha":913,"x_min":43,"x_max":881,"o":"m 880 340 q 824 156 876 235 q 681 31 772 76 q 467 -14 590 -14 q 238 45 333 -14 q 93 213 143 104 q 43 473 43 322 l 43 513 q 96 774 43 665 q 242 943 148 884 q 463 1002 336 1002 q 684 954 594 1002 q 823 825 774 907 q 881 640 872 743 l 627 640 q 590 755 626 717 q 463 793 554 793 q 372 767 408 793 q 319 680 336 741 q 302 515 302 619 l 302 473 q 317 308 302 368 q 369 221 332 247 q 467 195 405 195 q 553 210 517 195 q 607 257 588 225 q 626 340 625 289 l 880 340 z "},"D":{"ha":897,"x_min":70,"x_max":853,"o":"m 178 0 l 179 205 l 395 205 q 504 235 460 205 q 571 325 548 264 q 594 477 594 385 l 594 511 q 571 662 594 602 q 504 752 549 722 q 391 782 458 782 l 174 782 l 174 987 l 391 987 q 631 926 527 987 q 794 758 735 865 q 853 510 853 650 l 853 477 q 794 229 853 337 q 632 61 735 121 q 395 0 529 0 l 178 0 m 325 0 l 70 0 l 70 987 l 325 987 l 325 0 z "},"E":{"ha":776,"x_min":70,"x_max":758,"o":"m 756 0 l 235 0 l 235 205 l 756 205 l 756 0 m 325 0 l 70 0 l 70 987 l 325 987 l 325 0 m 689 408 l 235 408 l 235 605 l 689 605 l 689 408 m 758 782 l 235 782 l 235 987 l 758 987 l 758 782 z "},"F":{"ha":757,"x_min":70,"x_max":735,"o":"m 325 0 l 70 0 l 70 987 l 325 987 l 325 0 m 699 380 l 254 380 l 254 585 l 699 585 l 699 380 m 735 782 l 254 782 l 254 987 l 735 987 l 735 782 z "},"G":{"ha":947,"x_min":51,"x_max":888,"o":"m 888 122 q 809 62 861 94 q 677 8 756 31 q 490 -14 597 -14 q 259 42 357 -14 q 105 207 160 98 q 51 471 51 315 l 51 515 q 106 781 51 672 q 257 945 161 889 q 477 1002 353 1002 q 703 958 616 1002 q 833 836 789 914 q 887 656 878 758 l 642 656 q 618 735 636 704 q 569 782 601 766 q 486 798 537 798 q 392 768 432 798 q 331 676 353 738 q 309 517 309 614 l 309 471 q 330 314 309 376 q 395 221 351 252 q 509 191 439 191 q 567 196 543 191 q 608 209 591 201 q 633 224 624 216 l 633 358 l 479 358 l 479 538 l 888 538 l 888 122 z "},"H":{"ha":976,"x_min":70,"x_max":905,"o":"m 734 400 l 240 400 l 240 605 l 734 605 l 734 400 m 325 0 l 70 0 l 70 987 l 325 987 l 325 0 m 905 0 l 652 0 l 652 987 l 905 987 l 905 0 z "},"I":{"ha":425,"x_min":85,"x_max":339,"o":"m 339 0 l 85 0 l 85 987 l 339 987 l 339 0 z "},"J":{"ha":783,"x_min":22,"x_max":711,"o":"m 458 987 l 711 987 l 711 314 q 666 141 711 215 q 542 27 620 68 q 367 -14 464 -14 q 189 20 267 -14 q 66 124 111 54 q 22 304 22 195 l 277 304 q 300 213 277 235 q 367 191 323 191 q 417 206 397 191 q 448 249 437 221 q 458 314 458 276 l 458 987 z "},"K":{"ha":889,"x_min":70,"x_max":911,"o":"m 325 0 l 70 0 l 70 987 l 325 987 l 325 0 m 534 477 l 308 227 l 260 469 l 401 694 l 597 987 l 911 987 l 534 477 m 370 433 l 568 582 l 909 0 l 608 0 l 370 433 z "},"L":{"ha":755,"x_min":70,"x_max":731,"o":"m 731 0 l 235 0 l 235 205 l 731 205 l 731 0 m 324 0 l 70 0 l 70 987 l 324 987 l 324 0 z "},"M":{"ha":1219,"x_min":70,"x_max":1148,"o":"m 404 987 l 609 335 l 814 987 l 1020 987 l 692 0 l 525 0 l 197 987 l 404 987 m 285 987 l 325 190 l 325 0 l 70 0 l 70 987 l 285 987 m 1148 987 l 1148 0 l 892 0 l 892 190 l 932 987 l 1148 987 z "},"N":{"ha":975,"x_min":70,"x_max":904,"o":"m 904 0 l 650 0 l 324 571 l 324 0 l 70 0 l 70 987 l 324 987 l 650 416 l 650 987 l 904 987 l 904 0 z "},"O":{"ha":962,"x_min":43,"x_max":917,"o":"m 917 479 q 861 215 917 326 q 707 46 805 105 q 481 -14 608 -14 q 254 46 353 -14 q 99 215 155 105 q 43 479 43 326 l 43 508 q 99 771 43 661 q 253 941 155 882 q 480 1001 352 1001 q 706 941 607 1001 q 861 771 804 882 q 917 508 917 661 l 917 479 m 659 509 q 638 666 659 603 q 577 761 617 729 q 480 793 537 793 q 381 761 420 793 q 322 666 342 729 q 302 509 302 603 l 302 479 q 322 323 302 387 q 382 227 342 260 q 481 194 422 194 q 578 227 538 194 q 638 323 618 260 q 659 479 659 387 l 659 509 z "},"P":{"ha":910,"x_min":70,"x_max":859,"o":"m 230 321 l 230 527 l 471 527 q 545 542 517 527 q 587 583 574 557 q 601 643 601 609 q 587 711 601 680 q 545 763 574 743 q 471 782 517 782 l 325 782 l 325 0 l 70 0 l 70 987 l 471 987 q 678 943 591 987 q 812 821 765 898 q 859 644 859 743 q 812 475 859 548 q 678 362 765 403 q 471 321 591 321 l 230 321 z "},"Q":{"ha":962,"x_min":45,"x_max":919,"o":"m 908 -45 l 751 -182 l 475 41 l 627 178 l 908 -45 m 919 479 q 863 215 919 326 q 709 46 807 105 q 484 -14 610 -14 q 256 46 355 -14 q 101 215 157 105 q 45 479 45 326 l 45 508 q 101 771 45 661 q 255 941 157 882 q 482 1001 354 1001 q 708 941 609 1001 q 863 771 806 882 q 919 508 919 661 l 919 479 m 661 509 q 640 666 661 603 q 579 761 618 729 q 482 793 539 793 q 383 761 422 793 q 323 666 343 729 q 304 509 304 603 l 304 479 q 324 323 304 387 q 384 227 344 260 q 484 194 424 194 q 580 227 541 194 q 640 323 619 260 q 661 479 661 387 l 661 509 z "},"R":{"ha":907,"x_min":71,"x_max":876,"o":"m 465 987 q 666 953 581 987 q 797 852 751 919 q 843 688 843 786 q 817 542 843 600 q 744 449 791 485 q 635 387 698 412 l 552 336 l 230 336 l 229 541 l 463 541 q 533 555 505 541 q 575 595 561 568 q 589 661 589 622 q 557 750 589 718 q 465 782 526 782 l 325 782 l 325 0 l 71 0 l 71 987 l 465 987 m 389 435 l 659 437 l 876 11 l 876 0 l 603 0 l 389 435 z "},"S":{"ha":874,"x_min":42,"x_max":828,"o":"m 572 266 q 561 313 572 292 q 515 353 550 333 q 409 397 480 373 q 285 446 345 418 q 176 512 224 474 q 100 601 128 549 q 71 720 71 652 q 121 870 71 807 q 258 967 172 932 q 456 1001 345 1001 q 649 964 565 1001 q 780 858 732 927 q 828 692 828 789 l 574 692 q 561 749 574 724 q 520 787 548 773 q 450 800 493 800 q 381 789 409 800 q 339 759 353 777 q 325 717 325 740 q 347 671 325 690 q 407 634 368 651 q 496 600 446 617 q 676 521 602 566 q 788 414 749 476 q 827 267 827 352 q 782 114 827 177 q 654 19 736 52 q 459 -14 571 -14 q 308 6 382 -14 q 173 67 233 26 q 78 173 113 109 q 42 328 42 238 l 297 328 q 307 260 297 288 q 337 217 317 233 q 388 193 357 200 q 459 186 418 186 q 526 197 501 186 q 562 227 551 209 q 572 266 572 245 z "},"T":{"ha":880,"x_min":24,"x_max":855,"o":"m 564 0 l 309 0 l 309 987 l 564 987 l 564 0 m 855 782 l 24 782 l 24 987 l 855 987 l 855 782 z "},"U":{"ha":923,"x_min":67,"x_max":853,"o":"m 853 987 l 853 348 q 805 151 853 231 q 668 28 756 70 q 462 -14 581 -14 q 255 28 345 -14 q 117 151 166 70 q 67 348 67 231 l 67 987 l 323 987 l 323 348 q 338 257 323 292 q 385 207 354 222 q 462 191 416 191 q 538 207 508 191 q 584 257 568 222 q 599 348 599 292 l 599 987 l 853 987 z "},"V":{"ha":925,"x_min":-5,"x_max":930,"o":"m 646 987 l 930 987 l 601 0 l 417 0 l 450 254 l 646 987 m 473 254 l 508 0 l 323 0 l -5 987 l 279 987 l 473 254 z "},"W":{"ha":1203,"x_min":12,"x_max":1187,"o":"m 491 987 l 614 987 l 688 947 l 481 0 l 345 0 l 297 47 l 491 987 m 428 37 l 376 0 l 218 0 l 12 987 l 265 987 l 428 37 m 935 987 l 1187 987 l 982 0 l 824 0 l 773 42 l 935 987 m 905 41 l 855 0 l 718 0 l 507 949 l 584 987 l 706 987 l 905 41 z "},"X":{"ha":891,"x_min":0,"x_max":891,"o":"m 446 675 l 594 987 l 884 987 l 614 497 l 891 0 l 598 0 l 446 317 l 293 0 l 0 0 l 277 497 l 7 987 l 297 987 l 446 675 z "},"Y":{"ha":876,"x_min":-5,"x_max":881,"o":"m 438 579 l 607 987 l 881 987 l 568 351 l 568 0 l 309 0 l 309 351 l -5 987 l 269 987 l 438 579 z "},"Z":{"ha":849,"x_min":38,"x_max":819,"o":"m 819 0 l 101 0 l 101 205 l 819 205 l 819 0 m 229 0 l 44 0 l 44 136 l 638 987 l 815 987 l 815 855 l 229 0 m 734 782 l 38 782 l 38 987 l 734 987 l 734 782 z "},"a":{"ha":738,"x_min":28,"x_max":712,"o":"m 435 482 q 417 547 435 523 q 358 571 400 571 q 320 564 336 571 q 297 543 305 557 q 290 503 290 528 l 45 503 q 85 629 45 574 q 199 716 125 684 q 371 747 272 747 q 529 718 459 747 q 640 629 599 688 q 680 481 680 570 l 680 191 q 689 76 680 112 q 712 12 697 40 l 712 0 l 468 0 q 443 88 451 36 q 435 197 435 140 l 435 482 m 465 318 l 371 318 q 293 287 313 318 q 273 221 273 256 q 291 181 273 196 q 338 165 310 165 q 396 178 372 165 q 433 208 420 191 q 443 237 445 224 l 495 135 q 465 82 481 109 q 424 35 448 56 q 364 0 399 13 q 279 -14 329 -14 q 154 14 212 -14 q 62 92 97 42 q 28 209 28 142 q 111 387 28 322 q 373 451 195 451 l 464 451 l 465 318 z "},"b":{"ha":783,"x_min":62,"x_max":751,"o":"m 307 1042 l 307 189 l 281 0 l 62 0 l 62 1042 l 307 1042 m 751 361 q 721 165 751 250 q 627 34 690 81 q 465 -14 564 -14 q 321 39 376 -14 q 236 179 267 92 q 191 372 205 267 l 191 364 q 236 555 205 468 q 321 695 266 642 q 464 747 376 747 q 627 699 564 747 q 721 566 690 650 q 751 376 751 482 l 751 361 m 507 376 q 499 463 507 423 q 470 527 492 503 q 402 551 448 551 q 345 540 368 551 q 309 508 322 530 q 290 455 295 487 q 287 380 285 422 l 287 357 q 294 260 284 299 q 330 201 304 221 q 404 182 357 182 q 472 204 450 182 q 500 267 494 226 q 507 361 507 307 l 507 376 z "},"c":{"ha":724,"x_min":33,"x_max":694,"o":"m 375 183 q 425 193 405 183 q 455 223 446 203 q 465 269 465 242 l 693 269 q 653 120 694 183 q 542 21 612 56 q 380 -14 471 -14 q 188 35 264 -14 q 72 169 111 84 q 33 360 33 253 l 33 373 q 72 565 33 480 q 187 699 110 650 q 379 747 264 747 q 544 712 473 747 q 654 610 614 677 q 693 446 694 543 l 465 446 q 456 498 465 475 q 427 536 447 522 q 373 551 406 551 q 310 527 330 551 q 283 462 290 503 q 277 373 277 422 l 277 360 q 283 270 277 310 q 310 207 289 230 q 375 183 331 183 z "},"d":{"ha":783,"x_min":32,"x_max":722,"o":"m 476 1042 l 722 1042 l 722 0 l 502 0 l 476 174 l 476 1042 m 32 372 q 64 568 32 484 q 160 700 96 652 q 318 747 224 747 q 457 695 401 747 q 546 554 513 642 q 593 357 578 465 l 593 365 q 546 178 578 264 q 457 39 513 92 q 317 -14 401 -14 q 160 35 223 -14 q 64 168 96 83 q 32 358 32 252 l 32 372 m 276 358 q 285 269 276 309 q 317 206 294 229 q 380 183 339 183 q 448 203 421 183 q 487 260 475 222 q 496 349 499 297 l 496 372 q 491 453 498 419 q 470 508 484 487 q 433 540 456 530 q 381 551 411 551 q 319 528 342 551 q 286 465 296 505 q 276 372 276 425 l 276 358 z "},"e":{"ha":761,"x_min":40,"x_max":735,"o":"m 423 -14 q 215 36 301 -14 q 85 166 130 85 q 40 342 40 248 l 40 367 q 79 558 40 472 q 198 696 119 645 q 397 747 277 747 q 579 704 504 747 q 695 579 654 660 q 735 385 735 498 l 735 283 l 132 283 l 132 439 l 496 439 l 496 459 q 486 511 497 491 q 451 541 474 532 q 395 551 429 551 q 324 524 348 551 q 292 456 300 498 q 284 367 284 414 l 284 342 q 302 257 284 293 q 356 203 321 222 q 439 184 391 184 q 529 199 484 184 q 606 254 574 215 l 715 114 q 606 26 682 66 q 423 -14 530 -14 z "},"f":{"ha":509,"x_min":5,"x_max":509,"o":"m 110 0 l 110 788 q 188 987 110 918 q 398 1056 266 1056 q 456 1052 429 1056 q 508 1041 483 1047 l 509 854 q 485 859 498 857 q 454 860 472 860 q 381 841 407 860 q 355 788 355 823 l 355 0 l 110 0 m 494 557 l 5 557 l 5 734 l 494 734 l 494 557 z "},"g":{"ha":802,"x_min":34,"x_max":741,"o":"m 741 734 l 741 32 q 693 -143 741 -71 q 559 -251 645 -214 q 359 -288 473 -288 q 258 -276 310 -288 q 160 -240 206 -264 q 84 -182 115 -216 l 186 -31 q 253 -79 212 -58 q 351 -100 295 -100 q 458 -65 421 -100 q 495 35 495 -29 l 495 557 l 519 734 l 741 734 m 34 372 q 71 568 34 484 q 175 700 107 652 q 337 747 243 747 q 462 717 414 747 q 539 633 511 687 q 584 509 568 580 q 612 357 600 438 l 612 365 q 566 178 596 264 q 480 39 535 92 q 336 -14 425 -14 q 175 35 243 -14 q 71 168 107 83 q 34 358 34 252 l 34 372 m 279 358 q 292 269 279 309 q 332 206 305 229 q 399 183 358 183 q 474 203 446 183 q 515 260 503 222 q 524 349 527 297 l 524 372 q 519 453 526 419 q 497 508 513 487 q 458 540 482 530 q 400 551 434 551 q 334 528 361 551 q 293 465 307 505 q 279 372 279 425 l 279 358 z "},"h":{"ha":786,"x_min":54,"x_max":728,"o":"m 299 0 l 54 0 l 54 1042 l 299 1042 l 299 0 m 214 385 q 247 572 214 490 q 339 701 279 654 q 480 747 399 747 q 609 719 553 747 q 696 625 665 690 q 728 450 728 559 l 728 0 l 482 0 l 482 452 q 471 513 482 492 q 437 543 459 534 q 385 551 416 551 q 325 539 347 551 q 290 507 302 528 q 274 456 278 486 q 271 389 271 426 l 214 385 z "},"i":{"ha":390,"x_min":59,"x_max":328,"o":"m 317 0 l 73 0 l 73 734 l 317 734 l 317 0 m 59 920 q 96 1008 59 974 q 193 1042 134 1042 q 291 1008 254 1042 q 328 920 328 974 q 291 832 328 866 q 193 798 254 798 q 96 832 134 798 q 59 920 59 866 z "},"j":{"ha":381,"x_min":-79,"x_max":329,"o":"m 323 734 l 323 -9 q 245 -222 323 -149 q 34 -296 168 -296 q -22 -294 3 -296 q -78 -285 -47 -292 l -79 -92 q -46 -96 -61 -94 q -14 -98 -31 -98 q 54 -76 31 -98 q 77 -9 77 -54 l 77 734 l 323 734 m 60 920 q 98 1008 60 974 q 195 1042 135 1042 q 292 1008 255 1042 q 329 920 329 974 q 292 832 329 866 q 195 798 255 798 q 98 832 135 798 q 60 920 60 866 z "},"k":{"ha":768,"x_min":62,"x_max":792,"o":"m 307 0 l 62 0 l 62 1042 l 307 1042 l 307 0 m 460 353 l 290 184 l 182 339 l 324 530 l 484 734 l 776 734 l 460 353 m 330 327 l 511 454 l 792 0 l 513 0 l 330 327 z "},"l":{"ha":390,"x_min":73,"x_max":317,"o":"m 317 0 l 73 0 l 73 1042 l 317 1042 l 317 0 z "},"m":{"ha":1192,"x_min":62,"x_max":1130,"o":"m 307 0 l 62 0 l 62 734 l 292 734 l 307 577 l 307 0 m 222 385 q 254 572 222 490 q 349 701 286 654 q 505 747 412 747 q 659 687 600 747 q 718 490 718 627 l 718 0 l 473 0 l 473 455 q 464 517 473 497 q 437 544 455 538 q 394 551 420 551 q 345 539 367 551 q 308 507 323 528 q 285 456 293 486 q 277 389 277 426 l 222 385 m 623 376 q 653 569 623 485 q 746 700 684 652 q 901 747 808 747 q 1019 721 968 747 q 1100 630 1071 694 q 1130 458 1130 567 l 1130 0 l 884 0 l 884 458 q 875 517 884 498 q 848 544 865 537 q 806 551 831 551 q 754 538 776 551 q 718 502 732 526 q 697 446 704 479 q 690 374 690 414 l 623 376 z "},"n":{"ha":786,"x_min":56,"x_max":728,"o":"m 300 0 l 56 0 l 56 734 l 284 734 l 300 577 l 300 0 m 215 385 q 250 582 214 501 q 349 705 285 663 q 498 747 413 747 q 617 720 566 747 q 698 630 669 693 q 728 458 728 567 l 728 0 l 482 0 l 482 458 q 471 517 482 498 q 438 544 460 537 q 386 551 417 551 q 331 539 353 551 q 296 507 309 528 q 277 456 283 486 q 271 389 271 426 l 215 385 z "},"o":{"ha":781,"x_min":33,"x_max":747,"o":"m 33 373 q 74 565 33 481 q 194 699 115 650 q 389 747 273 747 q 586 699 507 747 q 706 565 666 650 q 747 373 747 481 l 747 360 q 706 168 747 253 q 587 35 666 83 q 391 -14 507 -14 q 194 35 274 -14 q 74 168 115 83 q 33 360 33 253 l 33 373 m 278 360 q 287 270 278 310 q 321 206 296 229 q 391 183 345 183 q 460 206 435 183 q 493 270 484 229 q 503 360 503 310 l 503 373 q 493 462 503 422 q 460 527 484 503 q 389 551 435 551 q 320 527 345 551 q 287 462 296 503 q 278 373 278 422 l 278 360 z "},"p":{"ha":783,"x_min":62,"x_max":751,"o":"m 307 -282 l 62 -282 l 62 734 l 290 734 l 307 593 l 307 -282 m 751 362 q 718 171 751 256 q 622 36 686 85 q 465 -14 559 -14 q 322 40 377 -14 q 237 181 267 94 q 191 369 207 269 l 191 361 q 236 557 206 469 q 321 696 267 644 q 465 747 376 747 q 622 701 558 747 q 718 571 686 654 q 751 376 751 488 l 751 362 m 507 376 q 497 468 507 429 q 465 529 488 507 q 403 551 442 551 q 346 541 369 551 q 310 510 323 531 q 291 456 296 490 q 288 376 286 423 l 288 353 q 295 263 285 302 q 331 204 304 225 q 404 183 357 183 q 467 207 445 183 q 498 272 489 231 q 507 362 507 313 l 507 376 z "},"q":{"ha":782,"x_min":32,"x_max":722,"o":"m 476 577 l 511 734 l 722 734 l 722 -282 l 476 -282 l 476 577 m 32 374 q 64 570 32 486 q 161 701 97 654 q 317 747 224 747 q 461 695 406 747 q 546 555 515 643 q 591 359 576 467 l 591 367 q 545 180 576 267 q 460 40 515 93 q 316 -14 405 -14 q 160 36 223 -14 q 64 169 96 85 q 32 360 32 254 l 32 374 m 276 360 q 285 271 276 311 q 316 207 294 231 q 379 183 339 183 q 453 203 427 183 q 489 262 479 224 q 495 352 498 300 l 495 375 q 492 455 497 422 q 473 510 487 488 q 437 541 460 531 q 380 551 414 551 q 318 528 341 551 q 286 466 295 506 q 276 374 276 427 l 276 360 z "},"r":{"ha":532,"x_min":62,"x_max":518,"o":"m 307 0 l 62 0 l 62 734 l 290 734 l 307 538 l 307 0 m 514 500 q 476 504 500 502 q 437 506 452 506 q 353 493 385 506 q 307 452 321 479 q 293 378 292 424 l 250 415 q 275 590 250 515 q 346 706 300 665 q 454 747 392 747 q 488 746 471 747 q 518 739 505 744 l 514 500 z "},"s":{"ha":713,"x_min":20,"x_max":675,"o":"m 439 210 q 427 237 439 227 q 385 258 415 248 q 301 279 355 268 q 172 324 231 295 q 78 399 113 353 q 43 510 43 445 q 79 627 43 573 q 183 714 115 682 q 349 747 252 747 q 523 717 450 747 q 636 632 596 686 q 675 505 675 578 l 431 505 q 413 564 431 545 q 349 582 395 582 q 312 575 330 582 q 284 555 295 568 q 274 523 274 543 q 287 493 274 506 q 324 470 299 479 q 388 454 349 460 q 526 418 460 442 q 633 346 591 393 q 674 216 674 298 q 634 99 674 151 q 522 17 595 47 q 349 -14 448 -14 q 168 25 241 -14 q 57 122 95 64 q 20 240 20 181 l 248 240 q 262 192 249 211 q 299 162 275 172 q 355 153 323 153 q 401 159 383 153 q 429 179 420 166 q 439 210 439 192 z "},"t":{"ha":480,"x_min":7,"x_max":469,"o":"m 458 557 l 7 557 l 7 734 l 458 734 l 458 557 m 341 916 l 341 253 q 347 213 341 227 q 369 192 353 198 q 413 186 385 186 q 445 186 432 186 q 469 189 458 187 l 468 7 q 405 -8 437 -3 q 335 -14 373 -14 q 206 11 259 -14 q 125 86 153 35 q 97 218 97 137 l 97 916 l 341 916 z "},"u":{"ha":786,"x_min":56,"x_max":728,"o":"m 484 734 l 728 734 l 728 0 l 500 0 l 484 180 l 484 734 m 568 332 q 537 155 568 233 q 446 32 506 77 q 302 -14 387 -14 q 124 50 193 -14 q 56 258 56 113 l 56 734 l 300 734 l 300 257 q 310 217 300 234 q 337 192 319 201 q 383 183 356 183 q 458 202 431 183 q 496 255 485 221 q 507 331 507 288 l 568 332 z "},"v":{"ha":722,"x_min":-1,"x_max":721,"o":"m 464 734 l 721 734 l 485 0 l 333 0 l 329 171 l 464 734 m 390 172 l 387 0 l 235 0 l -1 734 l 258 734 l 390 172 z "},"w":{"ha":1005,"x_min":12,"x_max":991,"o":"m 416 734 l 568 734 l 517 448 l 387 0 l 266 0 l 284 233 l 416 734 m 323 239 l 329 0 l 182 0 l 12 734 l 245 734 l 323 239 m 758 734 l 991 734 l 822 0 l 674 0 l 678 252 l 758 734 m 720 233 l 738 0 l 615 0 l 488 446 l 439 734 l 586 734 l 720 233 z "},"x":{"ha":720,"x_min":5,"x_max":723,"o":"m 364 550 l 460 734 l 713 734 l 526 377 l 723 0 l 468 0 l 363 199 l 261 0 l 5 0 l 203 377 l 16 734 l 272 734 l 364 550 z "},"y":{"ha":725,"x_min":-6,"x_max":732,"o":"m 471 734 l 732 734 l 440 -108 q 414 -168 431 -136 q 371 -230 398 -201 q 300 -278 343 -259 q 193 -296 257 -296 q 157 -295 170 -296 q 130 -291 143 -294 q 96 -282 117 -288 l 96 -100 q 110 -100 104 -100 q 123 -100 115 -100 q 200 -86 178 -100 q 231 -50 222 -73 l 285 89 l 471 734 m 390 241 l 415 -32 l 252 -23 l -6 734 l 256 734 l 390 241 z "},"z":{"ha":720,"x_min":44,"x_max":671,"o":"m 671 0 l 102 0 l 102 197 l 671 197 l 671 0 m 212 0 l 44 0 l 44 139 l 498 734 l 667 734 l 667 599 l 212 0 m 587 537 l 58 537 l 58 734 l 587 734 l 587 537 z "},"¹":{"ha":523,"x_min":98,"x_max":374,"o":"m 374 452 l 214 452 l 214 798 l 98 778 l 98 901 l 361 985 l 374 985 l 374 452 z "},"²":{"ha":523,"x_min":33,"x_max":475,"o":"m 475 452 l 45 452 l 45 561 l 239 728 q 287 783 271 755 q 303 822 303 811 q 290 854 303 843 q 252 866 277 866 q 210 846 224 866 q 195 803 195 827 l 33 803 q 59 900 33 856 q 132 969 85 943 q 243 996 179 996 q 407 951 349 996 q 464 821 464 906 q 448 747 464 779 q 396 684 431 715 q 305 612 361 652 l 260 581 l 475 581 l 475 452 z "},"³":{"ha":523,"x_min":26,"x_max":483,"o":"m 251 777 q 297 790 282 777 q 311 827 311 804 q 299 852 311 838 q 252 866 287 866 q 215 860 231 866 q 198 841 198 853 l 37 841 q 67 928 37 894 q 145 979 97 962 q 247 996 193 996 q 410 956 347 996 q 473 841 473 917 q 445 767 473 795 q 373 725 418 739 q 277 711 328 711 l 189 711 l 189 777 l 251 777 m 189 738 l 277 738 q 379 728 332 738 q 454 689 426 718 q 483 604 483 660 q 415 486 483 528 q 246 445 347 445 q 146 461 197 445 q 61 516 95 477 q 26 619 26 554 l 189 619 q 207 589 189 604 q 258 575 225 575 q 307 590 294 575 q 321 623 321 606 q 302 663 321 651 q 251 674 284 674 l 189 674 l 189 738 z "},"ª":{"ha":614,"x_min":89,"x_max":530,"o":"m 387 814 q 369 875 387 854 q 313 896 351 896 q 248 880 271 896 q 224 833 224 863 l 100 843 q 158 956 100 911 q 313 1001 216 1001 q 457 954 402 1001 q 512 814 512 907 l 512 601 q 516 538 512 568 q 530 478 519 508 l 404 478 q 391 529 395 502 q 387 584 387 556 l 387 814 m 418 698 l 322 698 q 239 676 265 698 q 214 627 214 654 q 232 586 214 600 q 289 571 251 571 q 343 583 315 571 q 390 612 371 595 q 408 646 408 630 l 420 563 q 390 520 410 542 q 336 483 369 498 q 258 469 304 469 q 133 511 176 469 q 89 624 89 553 q 146 740 89 699 q 321 781 203 781 l 418 781 l 418 698 z "},"º":{"ha":637,"x_min":78,"x_max":553,"o":"m 78 759 q 142 933 78 865 q 315 1001 207 1001 q 489 933 425 1001 q 553 759 553 865 l 553 709 q 489 535 553 603 q 317 468 426 468 q 142 535 207 468 q 78 709 78 603 l 78 759 m 203 709 q 231 611 203 650 q 317 572 259 572 q 400 611 373 572 q 428 709 428 650 l 428 759 q 400 857 428 817 q 315 896 372 896 q 231 857 259 896 q 203 759 203 817 l 203 709 z "},"½":{"ha":1135,"x_min":98,"x_max":1087,"o":"m 380 73 l 267 130 l 749 901 l 862 844 l 380 73 m 374 370 l 214 370 l 214 716 l 98 696 l 98 819 l 361 903 l 374 903 l 374 370 m 1087 0 l 657 0 l 657 109 l 850 276 q 899 331 882 302 q 915 370 915 359 q 902 402 915 391 q 863 414 889 414 q 821 394 836 414 q 807 351 807 374 l 645 351 q 671 447 645 404 q 744 517 696 491 q 854 543 791 543 q 1018 498 961 543 q 1076 369 1076 454 q 1059 295 1076 327 q 1008 232 1043 263 q 917 159 973 200 l 871 129 l 1087 129 l 1087 0 z "},"¼":{"ha":1068,"x_min":98,"x_max":1025,"o":"m 387 73 l 274 130 l 756 901 l 869 844 l 387 73 m 374 370 l 214 370 l 214 716 l 98 696 l 98 819 l 361 903 l 374 903 l 374 370 m 1025 103 l 592 103 l 581 211 l 814 535 l 941 535 l 804 328 l 732 235 l 1025 235 l 1025 103 m 975 0 l 813 0 l 813 535 l 975 535 l 975 0 z "},"¾":{"ha":1122,"x_min":26,"x_max":1080,"o":"m 251 690 q 297 704 282 690 q 311 740 311 717 q 299 765 311 751 q 252 779 287 779 q 215 773 231 779 q 198 754 198 766 l 37 754 q 67 841 37 807 q 145 892 97 876 q 247 909 193 909 q 410 869 347 909 q 473 754 473 830 q 445 680 473 709 q 373 638 418 652 q 277 624 328 624 l 189 624 l 189 690 l 251 690 m 189 651 l 277 651 q 379 641 332 651 q 454 602 426 631 q 483 517 483 573 q 415 399 483 441 q 246 358 347 358 q 146 374 197 358 q 61 429 95 391 q 26 532 26 467 l 189 532 q 207 503 189 517 q 258 488 225 488 q 307 504 294 488 q 321 536 321 519 q 302 576 321 564 q 251 587 284 587 l 189 587 l 189 651 m 441 73 l 328 130 l 810 901 l 923 844 l 441 73 m 1080 103 l 646 103 l 635 211 l 868 535 l 995 535 l 859 328 l 786 235 l 1080 235 l 1080 103 m 1029 0 l 867 0 l 867 535 l 1029 535 l 1029 0 z "},"Æ":{"ha":1312,"x_min":9,"x_max":1259,"o":"m 292 0 l 9 0 l 499 987 l 652 987 l 686 875 l 292 0 m 741 216 l 226 216 l 226 419 l 741 419 l 741 216 m 1259 0 l 763 0 l 763 200 l 1259 200 l 1259 0 m 888 0 l 644 0 l 602 987 l 847 987 l 888 0 m 1163 402 l 735 402 l 735 602 l 1163 602 l 1163 402 m 1218 787 l 722 787 l 722 987 l 1218 987 l 1218 787 z "},"æ":{"ha":1173,"x_min":40,"x_max":1145,"o":"m 481 473 q 460 530 481 509 q 400 551 439 551 q 334 535 357 551 q 311 498 311 520 l 66 512 q 108 633 66 581 q 225 717 149 686 q 404 747 300 747 q 633 678 547 747 q 718 471 718 609 l 718 148 l 481 124 l 481 473 m 514 296 l 399 296 q 336 285 361 296 q 297 257 311 274 q 284 221 284 240 q 307 176 284 192 q 378 160 330 160 q 425 168 401 160 q 471 188 450 176 q 504 215 492 200 q 516 243 517 229 l 625 130 q 570 64 608 97 q 473 9 532 31 q 331 -14 414 -14 q 115 51 190 -14 q 40 224 40 115 q 131 389 40 331 q 397 448 222 448 l 512 448 l 514 296 m 838 -14 q 643 30 723 -14 q 522 150 563 73 q 480 324 480 226 l 480 382 q 518 572 480 490 q 634 702 556 655 q 831 747 712 748 q 1060 657 976 747 q 1145 412 1145 566 l 1145 282 l 572 282 l 572 439 l 906 439 l 906 456 q 897 509 906 488 q 872 540 888 530 q 831 551 855 551 q 760 529 785 551 q 727 470 736 508 q 718 382 718 432 l 718 324 q 733 252 718 283 q 782 202 748 220 q 872 184 817 184 q 979 194 937 184 q 1063 222 1020 205 l 1120 68 q 1047 27 1092 45 q 949 -3 1003 8 q 838 -14 895 -14 z "},"Œ":{"ha":1359,"x_min":62,"x_max":1310,"o":"m 494 1001 q 594 997 545 1001 q 688 987 644 993 l 688 785 q 595 798 645 793 q 494 804 546 804 q 394 782 436 804 q 329 714 352 760 q 307 598 307 669 l 307 391 q 330 275 307 321 q 395 206 353 229 q 495 184 437 184 q 596 189 547 184 q 688 202 645 194 l 688 0 q 595 -9 644 -5 q 495 -14 546 -14 q 269 38 367 -14 q 117 180 172 89 q 62 391 62 271 l 62 597 q 116 808 62 717 q 268 950 171 899 q 494 1001 366 1001 m 1308 0 l 786 0 l 786 205 l 1308 205 l 1308 0 m 876 0 l 621 0 l 621 987 l 876 987 l 876 0 m 1240 408 l 786 408 l 786 605 l 1240 605 l 1240 408 m 1310 782 l 786 782 l 786 987 l 1310 987 l 1310 782 z "},"œ":{"ha":1247,"x_min":50,"x_max":1192,"o":"m 888 -14 q 695 34 775 -14 q 571 163 614 82 q 528 341 528 243 l 528 365 q 566 559 528 472 q 680 697 604 646 q 870 747 755 748 q 1044 707 972 747 q 1154 591 1116 666 q 1192 412 1192 516 l 1192 282 l 620 282 l 620 438 l 954 438 l 954 456 q 945 509 954 488 q 919 540 937 530 q 870 551 901 551 q 808 525 829 551 q 780 457 787 499 q 772 365 772 414 l 772 341 q 788 264 772 300 q 837 206 804 229 q 922 184 869 184 q 1034 195 994 184 q 1122 222 1075 205 l 1179 66 q 1058 11 1135 35 q 888 -14 981 -14 m 50 373 q 91 565 50 481 q 212 699 132 650 q 408 747 292 747 q 605 699 525 747 q 725 565 684 650 q 766 373 766 481 l 766 360 q 725 168 766 253 q 605 35 684 83 q 409 -14 526 -14 q 212 35 292 -14 q 91 168 132 83 q 50 360 50 253 l 50 373 m 294 360 q 304 270 294 310 q 338 207 313 230 q 409 184 363 184 q 478 207 454 184 q 512 270 503 230 q 522 360 522 310 l 522 373 q 512 462 522 422 q 478 527 503 503 q 408 551 454 551 q 338 527 363 551 q 304 462 313 503 q 294 373 294 422 l 294 360 z "},"ð":{"ha":789,"x_min":38,"x_max":767,"o":"m 226 1071 q 505 957 383 1042 q 697 744 627 873 q 767 449 767 614 l 767 411 q 718 189 767 285 q 584 40 669 94 q 391 -14 499 -14 q 205 31 285 -14 q 82 150 126 75 q 38 317 38 225 q 73 492 38 417 q 176 609 107 567 q 347 650 245 650 q 485 618 423 650 q 585 527 546 585 q 631 388 623 468 l 546 390 q 537 417 546 404 q 510 443 528 431 q 465 462 492 454 q 401 469 437 469 q 334 451 360 469 q 295 399 308 433 q 282 317 282 366 q 296 247 282 277 q 334 200 309 216 q 394 183 359 183 q 466 209 438 183 q 508 278 494 234 q 522 378 522 322 l 522 450 q 490 622 522 548 q 405 749 458 696 q 284 836 351 802 q 148 888 218 870 l 226 1071 m 274 691 l 218 776 l 616 1021 l 671 935 l 274 691 z "},"Þ":{"ha":862,"x_min":75,"x_max":831,"o":"m 320 987 l 320 0 l 75 0 l 75 987 l 320 987 m 445 819 q 656 778 570 819 q 787 666 743 737 q 831 500 831 594 q 787 336 831 408 q 656 223 743 264 q 445 182 570 182 l 292 182 l 292 379 l 445 379 q 527 396 496 379 q 572 440 558 412 q 586 499 586 467 q 572 560 586 532 q 527 605 558 588 q 445 622 496 622 l 321 622 l 148 819 l 445 819 z "},"þ":{"ha":780,"x_min":60,"x_max":749,"o":"m 306 -282 l 60 -282 l 60 1042 l 306 1042 l 306 -282 m 749 362 q 717 171 749 256 q 621 36 684 85 q 464 -14 557 -14 q 320 40 375 -14 q 235 181 265 94 q 190 369 205 269 l 190 361 q 235 557 205 469 q 319 696 264 644 q 463 747 374 747 q 620 701 556 747 q 716 571 684 654 q 749 376 749 488 l 749 362 m 505 376 q 495 468 505 429 q 463 529 486 507 q 401 551 441 551 q 345 541 368 551 q 308 510 321 531 q 289 456 294 490 q 286 376 284 423 l 286 353 q 293 263 283 302 q 329 204 302 225 q 403 183 356 183 q 465 207 443 183 q 496 272 487 231 q 505 362 505 313 l 505 376 z "},"ẞ":{"ha":972,"x_min":40,"x_max":916,"o":"m 286 0 l 40 0 l 40 648 l 286 648 l 286 0 m 40 646 q 81 843 40 764 q 205 962 123 922 q 410 1002 287 1002 q 655 955 543 1002 q 887 823 768 909 l 589 484 l 418 484 l 418 572 l 580 749 q 503 789 545 774 q 410 805 462 805 q 351 793 379 805 q 304 747 322 781 q 286 646 286 713 l 40 646 m 397 213 q 454 194 416 205 q 538 182 492 182 q 637 211 602 182 q 672 290 672 239 q 652 376 672 345 q 595 418 633 406 q 504 430 558 430 l 418 430 l 418 568 l 548 586 q 819 511 722 586 q 916 289 916 436 q 869 119 916 186 q 744 19 821 52 q 574 -14 666 -14 q 427 -1 486 -14 q 328 30 368 13 l 397 213 z "},"ß":{"ha":911,"x_min":90,"x_max":874,"o":"m 334 0 l 90 0 l 90 742 q 186 980 90 900 q 449 1061 281 1061 q 602 1030 532 1061 q 714 940 671 1000 q 756 794 756 881 q 747 721 756 747 q 725 676 737 694 q 703 634 712 658 q 693 568 693 611 q 711 525 693 547 q 757 477 730 503 q 811 420 784 452 q 856 348 838 388 q 874 258 874 309 q 838 114 874 176 q 729 20 802 53 q 545 -14 656 -14 q 477 -10 511 -14 q 413 0 443 -7 q 365 17 384 7 l 407 208 q 462 192 427 199 q 547 184 497 184 q 589 192 570 184 q 620 216 608 199 q 631 256 631 232 q 612 309 631 286 q 567 355 594 332 q 512 404 540 377 q 467 466 485 430 q 448 553 448 502 q 458 629 448 601 q 479 677 467 656 q 501 721 492 697 q 511 784 511 745 q 499 825 511 806 q 468 853 488 843 q 420 864 448 864 q 358 839 382 864 q 334 737 334 813 l 334 0 z "},"ﬁ":{"ha":897,"x_min":9,"x_max":825,"o":"m 113 0 l 113 741 q 207 975 113 895 q 470 1056 300 1056 q 592 1045 534 1056 q 714 1017 651 1034 l 681 815 q 596 834 640 825 q 486 844 552 844 q 392 817 425 844 q 359 741 359 791 l 359 0 l 113 0 m 498 557 l 9 557 l 9 734 l 498 734 l 498 557 m 825 0 l 580 0 l 580 734 l 825 734 l 825 0 z "},"$":{"ha":808,"x_min":54,"x_max":755,"o":"m 490 944 l 376 944 l 376 1143 l 490 1143 l 490 944 m 475 -149 l 361 -149 l 361 36 l 475 36 l 475 -149 m 505 264 q 495 322 505 300 q 461 360 484 344 q 399 393 438 376 q 239 471 309 431 q 130 568 170 510 q 91 722 91 627 q 133 869 91 806 q 250 967 176 932 q 422 1002 325 1002 q 596 963 521 1002 q 713 852 671 924 q 755 680 755 781 l 511 680 q 484 782 511 754 q 418 810 456 810 q 370 797 389 810 q 343 764 352 785 q 335 719 335 743 q 345 672 335 692 q 378 635 355 652 q 442 599 401 618 q 600 518 530 559 q 710 418 669 477 q 750 266 750 359 q 708 114 750 177 q 591 19 666 52 q 418 -14 517 -14 q 288 3 353 -14 q 171 59 224 20 q 86 163 118 98 q 54 323 54 229 l 298 323 q 308 254 298 282 q 335 209 318 226 q 373 185 351 193 q 418 178 395 178 q 469 190 450 178 q 496 221 488 201 q 505 264 505 241 z "},"¢":{"ha":826,"x_min":65,"x_max":726,"o":"m 488 694 l 345 694 l 345 894 l 488 894 l 488 694 m 488 -166 l 345 -166 l 345 33 l 488 33 l 488 -166 m 407 183 q 457 193 437 183 q 487 223 477 203 q 496 269 497 242 l 725 269 q 685 120 726 183 q 573 21 644 56 q 412 -14 503 -14 q 219 35 296 -14 q 104 169 142 84 q 65 360 65 253 l 65 373 q 103 565 65 480 q 219 699 142 650 q 411 747 296 747 q 575 712 505 747 q 686 610 646 677 q 725 446 726 543 l 496 446 q 488 498 497 475 q 458 536 479 522 q 405 551 438 551 q 342 527 362 551 q 315 462 321 503 q 309 373 309 422 l 309 360 q 315 270 309 310 q 342 207 321 230 q 407 183 363 183 z "},"£":{"ha":838,"x_min":71,"x_max":808,"o":"m 73 0 l 73 205 l 804 205 l 804 0 l 73 0 m 71 369 l 71 566 l 633 566 l 633 369 l 71 369 m 439 315 q 406 204 439 245 q 283 130 372 162 l 142 205 q 170 222 162 210 q 179 254 178 235 q 181 296 181 273 l 169 705 q 207 864 169 798 q 316 965 245 930 q 481 1000 386 1000 q 724 919 640 1000 q 808 705 808 838 l 570 705 q 559 760 570 740 q 529 787 548 779 q 488 795 511 795 q 440 774 458 795 q 422 705 422 752 l 439 315 z "},"¥":{"ha":755,"x_min":5,"x_max":750,"o":"m 680 365 l 47 365 l 47 507 l 680 507 l 680 365 m 680 169 l 47 169 l 47 310 l 680 310 l 680 169 m 492 987 l 750 987 l 488 355 l 355 355 l 323 501 l 492 987 m 437 494 l 402 355 l 269 355 l 5 987 l 264 987 l 437 494 m 502 0 l 248 0 l 248 510 l 502 510 l 502 0 z "},"¤":{"ha":942,"x_min":44,"x_max":903,"o":"m 201 412 q 222 299 201 351 q 280 208 243 246 q 366 147 317 169 q 472 125 415 125 q 577 147 528 125 q 664 208 627 169 q 722 299 701 246 q 743 412 743 351 q 722 526 743 473 q 664 617 701 578 q 577 677 627 656 q 472 699 528 699 q 366 677 415 699 q 280 617 317 656 q 222 526 243 578 q 201 412 201 473 m 68 412 q 99 580 68 503 q 186 715 131 657 q 315 805 242 772 q 472 837 389 837 q 628 805 555 837 q 757 715 701 772 q 844 580 812 657 q 875 412 875 503 q 844 245 875 322 q 757 110 812 168 q 628 19 701 52 q 472 -14 555 -14 q 315 19 389 -14 q 186 110 242 52 q 99 245 131 168 q 68 412 68 322 m 766 614 l 665 718 l 802 858 l 903 754 l 766 614 m 145 -18 l 44 85 l 181 224 l 282 122 l 145 -18 m 665 121 l 766 224 l 903 85 l 802 -18 l 665 121 m 44 754 l 145 857 l 282 718 l 181 614 l 44 754 z "},"!":{"ha":393,"x_min":67,"x_max":336,"o":"m 302 321 l 105 321 l 73 987 l 334 987 l 302 321 m 67 113 q 104 203 67 168 q 201 239 142 239 q 299 203 262 239 q 336 113 336 168 q 299 23 336 60 q 201 -14 262 -14 q 104 23 142 -14 q 67 113 67 60 z "},"¡":{"ha":429,"x_min":83,"x_max":351,"o":"m 116 413 l 313 413 l 345 -254 l 84 -254 l 116 413 m 351 621 q 314 531 351 568 q 216 494 277 494 q 120 531 157 494 q 83 621 83 568 q 120 711 83 675 q 216 747 157 747 q 314 711 277 747 q 351 621 351 675 z "},"?":{"ha":716,"x_min":18,"x_max":670,"o":"m 231 321 q 239 427 231 380 q 268 511 248 474 q 325 577 289 549 q 378 625 356 602 q 412 671 400 648 q 425 718 425 694 q 405 785 425 764 q 346 805 385 805 q 290 782 315 805 q 263 705 264 759 l 18 705 q 63 876 19 811 q 180 971 106 941 q 346 1001 254 1001 q 584 933 497 1001 q 670 730 670 865 q 648 630 670 671 q 588 553 625 589 q 506 475 551 517 q 453 408 467 441 q 437 321 439 375 l 231 321 m 201 118 q 239 208 201 172 q 336 244 276 244 q 433 208 396 244 q 470 118 470 172 q 433 28 470 64 q 336 -8 396 -8 q 239 28 276 -8 q 201 118 201 64 z "},"¿":{"ha":715,"x_min":48,"x_max":699,"o":"m 488 419 q 481 313 488 360 q 454 230 473 267 q 397 164 434 193 q 342 113 366 137 q 306 65 319 90 q 293 10 293 40 q 314 -48 293 -31 q 365 -65 334 -65 q 427 -42 401 -65 q 454 35 452 -20 l 699 35 q 653 -136 697 -71 q 536 -231 610 -201 q 370 -261 462 -261 q 134 -192 220 -261 q 48 10 48 -123 q 72 111 48 68 q 135 191 96 153 q 220 270 174 229 q 258 313 245 293 q 275 358 271 334 q 281 419 280 383 l 488 419 m 525 622 q 488 532 525 568 q 391 496 451 496 q 294 532 332 496 q 257 622 257 568 q 294 712 257 676 q 391 748 332 748 q 488 712 451 748 q 525 622 525 676 z "},",":{"ha":385,"x_min":27,"x_max":296,"o":"m 295 24 q 253 -146 295 -62 q 150 -283 210 -230 l 27 -226 q 58 -162 41 -195 q 88 -89 75 -130 q 100 9 100 -48 l 100 180 l 296 180 l 295 24 z "},".":{"ha":430,"x_min":77,"x_max":345,"o":"m 77 119 q 115 208 77 172 q 211 244 152 244 q 308 208 271 244 q 345 119 345 172 q 308 29 345 65 q 211 -7 271 -7 q 115 29 152 -7 q 77 119 77 65 z "},":":{"ha":431,"x_min":79,"x_max":347,"o":"m 79 119 q 117 208 79 172 q 213 244 154 244 q 310 208 273 244 q 347 119 347 172 q 310 29 347 65 q 213 -7 273 -7 q 117 29 154 -7 q 79 119 79 65 m 79 644 q 117 733 79 697 q 213 769 154 769 q 310 733 273 769 q 347 644 347 697 q 310 554 347 590 q 213 517 273 517 q 117 554 154 517 q 79 644 79 590 z "},";":{"ha":412,"x_min":46,"x_max":338,"o":"m 71 644 q 109 733 71 697 q 205 769 146 769 q 301 733 264 769 q 338 644 338 697 q 301 554 338 590 q 205 517 264 517 q 109 554 146 517 q 71 644 71 590 m 314 24 q 272 -146 314 -62 q 169 -283 229 -230 l 46 -226 q 77 -162 60 -195 q 107 -89 94 -130 q 119 9 119 -48 l 119 180 l 315 180 l 314 24 z "},"…":{"ha":1095,"x_min":83,"x_max":1025,"o":"m 83 119 q 121 208 83 172 q 217 244 158 244 q 314 208 277 244 q 351 119 351 172 q 314 29 351 65 q 217 -7 277 -7 q 121 29 158 -7 q 83 119 83 65 m 421 119 q 458 208 421 172 q 555 244 496 244 q 651 208 614 244 q 688 119 688 172 q 651 29 688 65 q 555 -7 614 -7 q 458 29 496 -7 q 421 119 421 65 m 758 119 q 795 208 758 172 q 892 244 833 244 q 988 208 951 244 q 1025 119 1025 172 q 988 29 1025 65 q 892 -7 951 -7 q 795 29 833 -7 q 758 119 758 65 z "},"·":{"ha":456,"x_min":92,"x_max":359,"o":"m 92 459 q 129 549 92 513 q 225 585 166 585 q 322 549 285 585 q 359 459 359 513 q 322 369 359 406 q 225 333 285 333 q 129 369 166 333 q 92 459 92 406 z "},"•":{"ha":521,"x_min":90,"x_max":444,"o":"m 90 517 q 138 641 90 593 q 266 689 186 689 q 397 641 349 689 q 444 517 444 593 l 444 492 q 397 371 444 418 q 268 323 350 323 q 138 371 186 323 q 90 492 90 418 l 90 517 z "},"_":{"ha":616,"x_min":-1,"x_max":615,"o":"m 615 -189 l -1 -189 l -1 0 l 615 0 l 615 -189 z "},"-":{"ha":644,"x_min":109,"x_max":524,"o":"m 524 326 l 109 326 l 109 524 l 524 524 l 524 326 z "},"–":{"ha":855,"x_min":99,"x_max":817,"o":"m 817 378 l 99 378 l 99 578 l 817 578 l 817 378 z "},"—":{"ha":1044,"x_min":58,"x_max":1015,"o":"m 1015 378 l 58 378 l 58 578 l 1015 578 l 1015 378 z "},"'":{"ha":213,"x_min":24,"x_max":197,"o":"m 197 926 l 173 634 l 24 634 l 24 918 l 24 1042 l 197 1042 l 197 926 z "},"\"":{"ha":447,"x_min":10,"x_max":422,"o":"m 176 948 l 144 642 l 10 642 l 10 938 l 10 1042 l 176 1042 l 176 948 m 422 948 l 391 642 l 258 642 l 257 944 l 257 1042 l 422 1042 l 422 948 z "},"‘":{"ha":357,"x_min":74,"x_max":309,"o":"m 74 814 q 93 910 74 861 q 141 1001 111 958 q 202 1072 170 1044 l 309 1015 q 270 930 288 977 q 252 814 252 882 l 252 698 l 74 698 l 74 814 z "},"’":{"ha":347,"x_min":45,"x_max":279,"o":"m 279 924 q 260 829 279 878 q 212 738 241 781 q 151 667 183 695 l 45 724 q 83 809 65 762 q 102 925 102 857 l 102 1042 l 279 1042 l 279 924 z "},"‚":{"ha":391,"x_min":59,"x_max":294,"o":"m 293 39 q 274 -56 293 -7 q 227 -148 256 -105 q 165 -218 197 -190 l 59 -161 q 94 -76 79 -123 q 108 40 108 -29 l 108 177 l 294 177 l 293 39 z "},"“":{"ha":614,"x_min":79,"x_max":561,"o":"m 79 814 q 98 910 79 861 q 146 1001 117 958 q 208 1072 176 1044 l 314 1015 q 275 930 294 977 q 257 814 257 882 l 257 698 l 79 698 l 79 814 m 326 814 q 345 910 326 861 q 393 1001 363 958 q 454 1072 422 1044 l 561 1015 q 522 930 541 977 q 504 814 504 882 l 504 698 l 326 698 l 326 814 z "},"”":{"ha":618,"x_min":55,"x_max":544,"o":"m 289 924 q 270 829 289 878 q 222 738 252 781 q 161 667 193 695 l 55 724 q 94 809 75 762 q 112 925 112 857 l 112 1042 l 289 1042 l 289 924 m 544 924 q 525 829 544 878 q 477 738 507 781 q 416 667 448 695 l 310 724 q 349 809 330 762 q 367 925 367 857 l 367 1042 l 544 1042 l 544 924 z "},"„":{"ha":616,"x_min":59,"x_max":549,"o":"m 293 39 q 276 -62 293 -10 q 233 -158 260 -113 q 174 -233 205 -203 l 59 -176 q 94 -85 79 -136 q 108 40 108 -34 l 108 186 l 294 186 l 293 39 m 549 39 q 530 -62 549 -10 q 482 -158 511 -113 q 420 -233 452 -203 l 306 -176 q 345 -85 326 -136 q 363 40 363 -34 l 363 186 l 549 186 l 549 39 z "},"(":{"ha":496,"x_min":81,"x_max":469,"o":"m 81 401 q 110 657 81 543 q 189 859 139 772 q 299 1003 238 946 q 423 1084 360 1060 l 469 962 q 397 889 431 935 q 334 777 362 844 q 290 617 307 709 q 274 403 274 524 l 274 379 q 290 165 274 258 q 334 6 307 73 q 397 -106 362 -61 q 469 -178 431 -151 l 423 -302 q 299 -221 360 -278 q 189 -77 238 -163 q 110 125 139 10 q 81 380 81 240 l 81 401 z "},")":{"ha":494,"x_min":28,"x_max":433,"o":"m 433 380 q 402 135 433 248 q 320 -68 372 21 q 204 -218 269 -158 q 74 -302 140 -278 l 28 -178 q 99 -106 64 -151 q 162 6 134 -61 q 206 165 190 73 q 222 379 222 258 l 222 403 q 206 616 222 524 q 162 776 190 709 q 100 888 134 843 q 28 961 65 934 l 74 1084 q 204 1000 140 1060 q 320 851 269 940 q 402 648 372 762 q 433 401 433 534 l 433 380 z "},"[":{"ha":399,"x_min":69,"x_max":389,"o":"m 389 978 l 315 978 l 315 -58 l 389 -58 l 389 -242 l 69 -242 l 69 1163 l 389 1163 l 389 978 z "},"]":{"ha":399,"x_min":11,"x_max":330,"o":"m 11 1163 l 330 1163 l 330 -242 l 11 -242 l 11 -58 l 85 -58 l 85 978 l 11 978 l 11 1163 z "},"{":{"ha":451,"x_min":26,"x_max":422,"o":"m 422 951 q 358 883 374 932 q 342 768 342 833 l 342 632 q 309 507 342 563 q 207 417 277 450 q 26 384 138 384 l 26 507 q 106 541 81 507 q 130 632 130 574 l 130 768 q 153 901 130 839 q 229 1010 175 963 q 376 1083 283 1057 l 422 951 m 376 -240 q 229 -166 283 -214 q 153 -57 175 -119 q 130 76 130 5 l 130 212 q 106 302 130 269 q 26 336 81 336 l 26 460 q 207 427 138 460 q 309 337 277 393 q 342 212 342 281 l 342 76 q 358 -38 342 12 q 422 -108 374 -88 l 376 -240 z "},"}":{"ha":451,"x_min":30,"x_max":427,"o":"m 76 1083 q 224 1010 170 1057 q 300 901 277 963 q 322 768 322 839 l 322 632 q 347 541 322 574 q 427 507 371 507 l 427 384 q 245 417 315 384 q 143 507 176 450 q 111 632 111 563 l 111 768 q 95 883 111 833 q 30 951 79 932 l 76 1083 m 30 -108 q 95 -38 79 -88 q 111 76 111 12 l 111 212 q 143 338 111 281 q 245 427 176 394 q 427 460 315 460 l 427 336 q 347 302 371 336 q 322 212 322 269 l 322 76 q 300 -57 322 5 q 224 -166 277 -119 q 76 -240 170 -214 l 30 -108 z "},"‹":{"ha":444,"x_min":73,"x_max":404,"o":"m 248 340 l 73 341 l 73 350 l 257 616 l 404 616 l 248 340 m 404 72 l 257 72 l 73 337 l 73 346 l 248 347 l 404 72 z "},"›":{"ha":422,"x_min":50,"x_max":381,"o":"m 206 347 l 381 346 l 381 337 l 198 71 l 50 71 l 206 347 m 198 615 l 381 350 l 381 341 l 206 340 l 50 615 l 198 615 z "},"+":{"ha":739,"x_min":29,"x_max":706,"o":"m 706 352 l 29 352 l 29 570 l 706 570 l 706 352 m 482 99 l 255 99 l 255 818 l 482 818 l 482 99 z "},"−":{"ha":757,"x_min":90,"x_max":688,"o":"m 688 378 l 90 378 l 90 578 l 688 578 l 688 378 z "},"±":{"ha":749,"x_min":58,"x_max":679,"o":"m 679 475 l 58 475 l 58 681 l 679 681 l 679 475 m 473 251 l 260 251 l 260 881 l 473 881 l 473 251 m 665 1 l 67 1 l 67 201 l 665 201 l 665 1 z "},"×":{"ha":736,"x_min":32,"x_max":701,"o":"m 33 279 l 562 817 l 701 680 l 173 142 l 33 279 m 32 680 l 172 817 l 700 279 l 560 142 l 32 680 z "},"÷":{"ha":791,"x_min":40,"x_max":751,"o":"m 751 372 l 40 372 l 40 553 l 751 553 l 751 372 m 260 735 q 297 823 260 789 q 393 857 334 857 q 490 823 453 857 q 527 735 527 789 q 490 648 527 682 q 393 614 453 614 q 297 648 334 614 q 260 735 260 682 m 260 186 q 297 274 260 240 q 393 308 334 308 q 490 274 453 308 q 527 186 527 240 q 490 99 527 133 q 393 64 453 64 q 297 99 334 64 q 260 186 260 133 z "},"=":{"ha":817,"x_min":86,"x_max":720,"o":"m 720 474 l 86 474 l 86 670 l 720 670 l 720 474 m 720 173 l 86 173 l 86 369 l 720 369 l 720 173 z "},"<":{"ha":708,"x_min":29,"x_max":632,"o":"m 632 296 l 632 65 l 29 307 l 29 481 l 229 421 l 632 296 m 229 393 l 29 334 l 29 509 l 632 751 l 632 521 l 229 393 z "},">":{"ha":712,"x_min":75,"x_max":674,"o":"m 75 519 l 75 749 l 674 509 l 674 333 l 476 394 l 75 519 m 476 424 l 674 480 l 674 306 l 75 64 l 75 295 l 476 424 z "},"¬":{"ha":764,"x_min":85,"x_max":654,"o":"m 654 427 l 85 427 l 85 549 l 654 549 l 654 427 m 654 252 l 511 252 l 511 495 l 654 495 l 654 252 z "},"∕":{"ha":484,"x_min":-24,"x_max":479,"o":"m 149 -85 l -24 -85 l 307 987 l 479 987 l 149 -85 z "},"/":{"ha":484,"x_min":-24,"x_max":479,"o":"m 149 -85 l -24 -85 l 307 987 l 479 987 l 149 -85 z "},"\\":{"ha":598,"x_min":-18,"x_max":649,"o":"m -18 987 l 237 987 l 649 -85 l 393 -85 l -18 987 z "},"⁄":{"ha":612,"x_min":7,"x_max":602,"o":"m 120 73 l 7 130 l 490 901 l 602 844 l 120 73 z "},"%":{"ha":1031,"x_min":60,"x_max":972,"o":"m 60 798 q 85 900 60 854 q 159 974 110 946 q 282 1002 208 1002 q 408 974 358 1002 q 481 900 457 946 q 505 798 505 854 l 505 745 q 481 644 505 690 q 408 570 457 598 q 283 543 359 543 q 159 570 209 543 q 85 644 110 598 q 60 745 60 690 l 60 798 m 216 745 q 223 712 216 728 q 246 688 231 697 q 283 678 261 678 q 321 688 307 678 q 342 712 335 697 q 349 745 349 728 l 349 798 q 342 831 349 816 q 320 857 335 847 q 282 866 305 866 q 245 857 260 866 q 223 831 231 847 q 216 798 216 816 l 216 745 m 526 242 q 551 344 526 298 q 625 418 576 390 q 749 446 675 446 q 874 418 825 446 q 948 344 924 390 q 972 242 972 298 l 972 190 q 948 88 972 134 q 874 14 924 42 q 750 -14 825 -14 q 626 14 675 -14 q 551 88 576 42 q 526 190 526 134 l 526 242 m 682 190 q 691 156 682 172 q 716 132 701 141 q 750 122 732 122 q 794 132 780 122 q 812 156 808 141 q 816 190 816 172 l 816 242 q 799 289 816 269 q 749 310 783 310 q 698 289 715 310 q 682 242 682 269 l 682 190 m 329 73 l 216 130 l 699 901 l 811 844 l 329 73 z "},"|":{"ha":361,"x_min":117,"x_max":248,"o":"m 248 -183 l 117 -183 l 117 987 l 248 987 l 248 -183 z "},"¦":{"ha":362,"x_min":78,"x_max":289,"o":"m 78 -183 l 78 358 l 289 358 l 289 -183 l 78 -183 m 289 473 l 78 473 l 78 987 l 289 987 l 289 473 z "},"©":{"ha":1088,"x_min":56,"x_max":1019,"o":"m 757 404 q 695 244 757 297 q 528 191 633 191 q 354 263 418 191 q 290 453 290 336 l 290 536 q 354 725 290 652 q 528 798 418 798 q 695 745 633 798 q 758 585 758 691 l 646 585 q 616 675 646 648 q 528 702 586 702 q 457 681 486 702 q 414 623 429 660 q 400 536 400 585 l 400 453 q 432 332 400 378 q 528 286 464 286 q 616 313 586 286 q 646 404 646 339 l 757 404 m 142 494 q 173 329 142 406 q 258 195 203 252 q 384 106 312 138 q 538 75 456 75 q 691 106 619 75 q 817 195 762 138 q 902 329 871 252 q 932 494 932 406 q 902 660 932 583 q 817 793 871 736 q 691 881 762 850 q 538 913 619 913 q 384 881 456 913 q 258 793 312 850 q 173 660 203 736 q 142 494 142 583 m 56 494 q 94 694 56 602 q 197 856 131 787 q 351 963 264 924 q 538 1001 438 1001 q 725 963 637 1001 q 878 856 812 924 q 982 694 944 787 q 1019 494 1019 602 q 982 294 1019 387 q 878 133 944 202 q 725 25 812 64 q 538 -14 637 -14 q 351 25 438 -14 q 197 133 264 64 q 94 294 131 202 q 56 494 56 387 z "},"®":{"ha":1088,"x_min":57,"x_max":1020,"o":"m 410 441 l 409 536 l 524 536 q 608 555 572 536 q 644 612 644 574 q 618 679 644 660 q 528 697 592 697 l 442 697 l 442 214 l 335 214 l 335 791 l 528 791 q 689 745 629 791 q 750 610 750 699 q 711 520 750 555 q 600 466 672 486 q 595 461 597 466 q 591 456 593 456 q 576 446 579 449 q 570 442 573 443 q 553 441 567 441 l 410 441 m 562 526 q 709 476 669 526 q 749 350 749 427 l 749 311 q 751 263 749 286 q 760 224 753 240 l 760 214 l 650 214 q 643 264 644 231 q 642 311 642 296 l 642 349 q 620 418 642 395 q 547 441 599 441 l 562 526 m 143 494 q 174 329 143 406 q 258 195 204 252 q 385 106 313 138 q 538 75 456 75 q 691 106 620 75 q 817 195 763 138 q 902 329 871 252 q 933 494 933 406 q 902 660 933 583 q 817 793 871 736 q 691 881 763 850 q 538 913 620 913 q 385 881 456 913 q 258 793 313 850 q 174 660 204 736 q 143 494 143 583 m 57 494 q 94 694 57 602 q 198 856 132 787 q 352 963 264 924 q 538 1001 439 1001 q 725 963 637 1001 q 878 856 812 924 q 982 694 945 787 q 1020 494 1020 602 q 982 294 1020 387 q 878 133 945 202 q 725 25 812 64 q 538 -14 637 -14 q 352 25 439 -14 q 198 133 264 64 q 94 294 132 202 q 57 494 57 387 z "},"°":{"ha":554,"x_min":83,"x_max":466,"o":"m 83 806 q 110 904 83 860 q 180 975 136 948 q 277 1001 224 1001 q 372 975 329 1001 q 440 904 414 948 q 466 807 466 860 q 440 710 466 753 q 372 640 414 666 q 277 614 329 614 q 180 640 224 614 q 110 710 136 666 q 83 806 83 753 m 194 806 q 219 748 194 771 q 277 725 243 725 q 333 748 310 725 q 355 806 355 771 q 333 866 355 842 q 277 890 310 890 q 219 866 243 890 q 194 806 194 842 z "},"*":{"ha":652,"x_min":18,"x_max":650,"o":"m 237 643 l 18 703 l 64 840 l 279 749 l 260 987 l 414 987 l 395 745 l 604 832 l 650 693 l 427 634 l 574 457 l 451 371 l 329 570 l 207 378 l 83 461 l 237 643 z "},"#":{"ha":810,"x_min":18,"x_max":775,"o":"m 283 987 l 425 987 l 264 0 l 121 0 l 283 987 m 523 987 l 666 987 l 505 0 l 362 0 l 523 987 m 69 571 l 69 705 l 775 705 l 775 571 l 69 571 m 18 278 l 18 413 l 724 413 l 724 278 l 18 278 z "},"&":{"ha":944,"x_min":35,"x_max":921,"o":"m 418 649 q 468 697 460 675 q 475 736 475 720 q 457 783 475 760 q 406 805 439 805 q 351 783 369 805 q 332 730 332 762 q 370 637 332 684 q 458 528 407 591 l 921 0 l 649 0 l 275 421 q 163 582 205 511 q 122 728 122 652 q 157 869 122 807 q 257 966 193 930 q 407 1002 321 1002 q 546 968 487 1002 q 638 878 606 934 q 671 756 671 823 q 654 671 671 711 q 608 597 637 631 q 540 536 578 563 l 309 374 q 293 350 299 363 q 283 322 286 337 q 280 286 280 307 q 294 231 280 254 q 330 195 308 208 q 376 182 352 182 q 480 206 430 182 q 570 272 530 229 q 633 374 610 315 q 656 504 656 433 l 861 504 q 823 273 861 379 q 690 95 785 166 q 676 89 686 94 q 663 81 666 83 q 521 9 590 32 q 359 -14 452 -14 q 186 22 259 -14 q 74 121 113 58 q 35 267 35 184 q 56 366 35 323 q 116 443 78 408 q 205 514 155 479 l 418 649 z "},"@":{"ha":1240,"x_min":35,"x_max":1197,"o":"m 1190 379 q 1168 235 1187 305 q 1112 109 1149 165 q 1018 19 1075 52 q 880 -14 960 -14 q 739 42 793 -14 q 688 195 684 98 l 723 597 l 886 597 l 851 195 q 851 156 848 172 q 864 132 855 141 q 886 119 873 123 q 911 115 898 115 q 978 149 949 115 q 1025 240 1007 182 q 1045 371 1043 298 q 1011 609 1052 506 q 881 770 970 712 q 649 828 791 828 q 415 759 513 828 q 262 571 317 689 q 200 308 208 454 q 219 97 195 186 q 296 -50 244 8 q 427 -137 349 -109 q 606 -165 505 -165 q 727 -153 665 -165 q 831 -123 788 -140 l 857 -247 q 738 -292 810 -277 q 604 -307 667 -307 q 292 -239 420 -307 q 99 -34 163 -171 q 43 308 35 102 q 94 564 49 446 q 217 769 138 682 q 406 905 296 857 q 652 954 516 954 q 953 881 830 954 q 1136 678 1076 808 q 1190 379 1197 549 m 518 298 q 522 204 514 241 q 548 148 529 166 q 597 129 568 129 q 630 138 611 129 q 668 176 648 147 q 701 261 687 204 l 768 176 q 679 36 736 83 q 540 -11 622 -11 q 425 27 474 -11 q 353 135 376 65 q 338 298 329 204 q 397 495 352 412 q 512 625 443 579 q 668 671 582 671 q 796 648 750 671 q 886 597 842 625 l 807 479 q 756 513 788 496 q 682 530 725 530 q 595 503 629 530 q 544 424 562 475 q 518 298 526 372 z "},"§":{"ha":887,"x_min":62,"x_max":817,"o":"m 452 217 q 544 245 511 217 q 576 319 576 273 q 561 361 576 343 q 509 397 546 380 q 406 433 472 414 q 228 499 302 463 q 112 591 153 535 q 72 735 72 646 q 117 876 72 816 q 245 968 163 935 q 439 1001 328 1001 q 706 927 608 1001 q 804 713 804 852 l 559 713 q 546 760 559 739 q 506 792 532 780 q 439 804 479 804 q 346 784 374 804 q 317 736 317 765 q 331 697 317 713 q 380 667 344 681 q 486 636 416 654 q 665 574 591 610 q 778 485 739 538 q 817 350 817 431 q 717 167 817 227 q 452 107 618 107 l 452 217 m 417 486 q 333 458 359 486 q 307 387 307 431 q 319 341 307 359 q 368 308 332 323 q 473 271 404 292 q 654 208 580 243 q 768 115 729 172 q 807 -31 807 59 q 707 -222 807 -156 q 443 -288 608 -288 q 304 -274 372 -288 q 182 -230 236 -261 q 95 -145 127 -199 q 63 -11 63 -92 l 308 -12 q 319 -54 308 -38 q 350 -77 331 -69 q 393 -87 369 -85 q 443 -90 418 -90 q 533 -75 503 -90 q 563 -31 563 -61 q 548 6 563 -9 q 496 37 533 22 q 391 70 458 52 q 215 132 289 97 q 102 221 141 168 q 62 355 62 275 q 159 536 62 474 q 417 598 256 598 l 417 486 z "},"¶":{"ha":682,"x_min":55,"x_max":607,"o":"m 443 0 l 443 353 l 389 353 q 207 394 281 353 q 94 507 132 435 q 55 670 55 578 q 94 833 55 761 q 207 946 132 905 q 389 987 281 987 l 607 987 l 607 0 l 443 0 z "},"^":{"ha":626,"x_min":22,"x_max":608,"o":"m 204 494 l 22 494 l 224 987 l 359 987 l 319 801 l 204 494 m 310 801 l 270 987 l 405 987 l 608 494 l 425 494 l 310 801 z "},"~":{"ha":871,"x_min":60,"x_max":809,"o":"m 809 546 q 780 381 809 449 q 698 278 750 313 q 578 242 646 242 q 486 262 527 242 q 398 328 444 282 q 352 365 374 353 q 306 378 330 378 q 253 345 273 378 q 232 269 232 313 l 60 272 q 90 437 60 370 q 171 538 119 504 q 289 573 222 573 q 385 552 340 573 q 472 488 429 532 q 518 451 496 464 q 562 438 540 438 q 615 470 594 438 q 635 547 635 503 l 809 546 z "},"Á":{"ha":956,"x_min":-5,"x_max":960,"o":"m 269 0 l -5 0 l 357 987 l 530 987 l 500 749 l 269 0 m 455 749 l 422 987 l 596 987 l 960 0 l 687 0 l 455 749 m 684 165 l 178 165 l 178 371 l 684 371 l 684 165 m 492 1251 l 749 1251 l 557 1034 l 358 1034 l 492 1251 z "},"Â":{"ha":956,"x_min":-5,"x_max":960,"o":"m 269 0 l -5 0 l 357 987 l 530 987 l 500 749 l 269 0 m 455 749 l 422 987 l 596 987 l 960 0 l 687 0 l 455 749 m 684 165 l 178 165 l 178 371 l 684 371 l 684 165 m 777 1059 l 777 1050 l 586 1050 l 479 1136 l 373 1050 l 186 1050 l 186 1062 l 410 1252 l 549 1252 l 777 1059 z "},"Ä":{"ha":956,"x_min":-5,"x_max":960,"o":"m 269 0 l -5 0 l 357 987 l 530 987 l 500 749 l 269 0 m 455 749 l 422 987 l 596 987 l 960 0 l 687 0 l 455 749 m 684 165 l 178 165 l 178 371 l 684 371 l 684 165 m 191 1133 q 223 1201 191 1173 q 299 1229 255 1229 q 375 1201 343 1229 q 407 1133 407 1173 q 375 1063 407 1091 q 299 1036 343 1036 q 223 1063 255 1036 q 191 1133 191 1091 m 548 1133 q 580 1201 548 1173 q 656 1229 612 1229 q 731 1201 700 1229 q 763 1133 763 1173 q 731 1063 763 1091 q 656 1036 700 1036 q 580 1063 612 1036 q 548 1133 548 1091 z "},"À":{"ha":956,"x_min":-5,"x_max":960,"o":"m 269 0 l -5 0 l 357 987 l 530 987 l 500 749 l 269 0 m 455 749 l 422 987 l 596 987 l 960 0 l 687 0 l 455 749 m 684 165 l 178 165 l 178 371 l 684 371 l 684 165 m 618 1034 l 420 1034 l 224 1251 l 482 1251 l 618 1034 z "},"Å":{"ha":956,"x_min":-5,"x_max":960,"o":"m 269 0 l -5 0 l 357 987 l 530 987 l 500 749 l 269 0 m 455 749 l 422 987 l 596 987 l 960 0 l 687 0 l 455 749 m 684 165 l 178 165 l 178 371 l 684 371 l 684 165 m 326 1174 q 369 1271 326 1230 q 481 1312 413 1312 q 592 1271 549 1312 q 635 1174 635 1230 q 592 1078 635 1118 q 481 1038 549 1038 q 369 1078 413 1038 q 326 1174 326 1118 m 411 1174 q 429 1125 411 1145 q 481 1105 448 1105 q 532 1125 513 1105 q 550 1174 550 1145 q 532 1223 550 1202 q 481 1244 513 1244 q 429 1223 448 1244 q 411 1174 411 1202 z "},"Ã":{"ha":956,"x_min":-5,"x_max":960,"o":"m 269 0 l -5 0 l 357 987 l 530 987 l 500 749 l 269 0 m 455 749 l 422 987 l 596 987 l 960 0 l 687 0 l 455 749 m 684 165 l 178 165 l 178 371 l 684 371 l 684 165 z "},"Ç":{"ha":913,"x_min":43,"x_max":881,"o":"m 880 340 q 824 156 876 235 q 681 31 772 76 q 467 -14 590 -14 q 238 45 333 -14 q 93 213 143 104 q 43 473 43 322 l 43 513 q 96 774 43 665 q 242 943 148 884 q 463 1002 336 1002 q 684 954 594 1002 q 823 825 774 907 q 881 640 872 743 l 627 640 q 590 755 626 717 q 463 793 554 793 q 372 767 408 793 q 319 680 336 741 q 302 515 302 619 l 302 473 q 317 308 302 368 q 369 221 332 247 q 467 195 405 195 q 553 210 517 195 q 607 257 588 225 q 626 340 625 289 l 880 340 m 562 9 l 555 -32 q 623 -65 591 -39 q 655 -149 655 -91 q 589 -276 655 -229 q 396 -324 524 -324 l 391 -184 q 419 -179 408 -184 q 437 -164 431 -174 q 444 -136 444 -153 q 423 -103 444 -113 q 355 -92 402 -94 l 376 9 l 562 9 z "},"É":{"ha":776,"x_min":70,"x_max":758,"o":"m 756 0 l 235 0 l 235 205 l 756 205 l 756 0 m 325 0 l 70 0 l 70 987 l 325 987 l 325 0 m 689 408 l 235 408 l 235 605 l 689 605 l 689 408 m 758 782 l 235 782 l 235 987 l 758 987 l 758 782 m 452 1251 l 709 1251 l 516 1034 l 317 1034 l 452 1251 z "},"Ê":{"ha":776,"x_min":70,"x_max":758,"o":"m 756 0 l 235 0 l 235 205 l 756 205 l 756 0 m 325 0 l 70 0 l 70 987 l 325 987 l 325 0 m 689 408 l 235 408 l 235 605 l 689 605 l 689 408 m 758 782 l 235 782 l 235 987 l 758 987 l 758 782 m 736 1059 l 736 1049 l 545 1049 l 438 1135 l 332 1049 l 145 1049 l 145 1061 l 369 1251 l 509 1251 l 736 1059 z "},"Ë":{"ha":776,"x_min":70,"x_max":758,"o":"m 756 0 l 235 0 l 235 205 l 756 205 l 756 0 m 325 0 l 70 0 l 70 987 l 325 987 l 325 0 m 689 408 l 235 408 l 235 605 l 689 605 l 689 408 m 758 782 l 235 782 l 235 987 l 758 987 l 758 782 m 151 1132 q 182 1200 151 1173 q 258 1228 214 1228 q 334 1200 302 1228 q 366 1132 366 1173 q 334 1063 366 1090 q 258 1035 302 1035 q 182 1063 214 1035 q 151 1132 151 1090 m 507 1132 q 539 1200 507 1173 q 615 1228 571 1228 q 691 1200 659 1228 q 722 1132 722 1173 q 691 1063 722 1090 q 615 1035 659 1035 q 539 1063 571 1035 q 507 1132 507 1090 z "},"È":{"ha":776,"x_min":70,"x_max":758,"o":"m 756 0 l 235 0 l 235 205 l 756 205 l 756 0 m 325 0 l 70 0 l 70 987 l 325 987 l 325 0 m 689 408 l 235 408 l 235 605 l 689 605 l 689 408 m 758 782 l 235 782 l 235 987 l 758 987 l 758 782 m 577 1034 l 380 1034 l 184 1251 l 441 1251 l 577 1034 z "},"Ð":{"ha":897,"x_min":-26,"x_max":853,"o":"m 178 0 l 179 205 l 395 205 q 504 235 460 205 q 571 325 548 264 q 594 477 594 385 l 594 511 q 571 662 594 602 q 504 752 549 722 q 391 782 458 782 l 174 782 l 174 987 l 391 987 q 631 926 527 987 q 794 758 735 865 q 853 510 853 650 l 853 477 q 794 229 853 337 q 632 61 735 121 q 395 0 529 0 l 178 0 m 325 0 l 70 0 l 70 987 l 325 987 l 325 0 m 478 425 l -26 425 l -26 564 l 478 564 l 478 425 z "},"Í":{"ha":425,"x_min":85,"x_max":481,"o":"m 339 0 l 85 0 l 85 987 l 339 987 l 339 0 m 224 1251 l 481 1251 l 289 1034 l 90 1034 l 224 1251 z "},"Î":{"ha":425,"x_min":-82,"x_max":509,"o":"m 339 0 l 85 0 l 85 987 l 339 987 l 339 0 m 509 1059 l 509 1049 l 318 1049 l 211 1135 l 105 1049 l -82 1049 l -82 1061 l 142 1251 l 281 1251 l 509 1059 z "},"Ï":{"ha":425,"x_min":-77,"x_max":495,"o":"m 339 0 l 85 0 l 85 987 l 339 987 l 339 0 m -77 1132 q -45 1200 -77 1173 q 31 1228 -13 1228 q 107 1200 75 1228 q 139 1132 139 1173 q 107 1063 139 1090 q 31 1035 75 1035 q -45 1063 -13 1035 q -77 1132 -77 1090 m 280 1132 q 312 1200 280 1173 q 388 1228 344 1228 q 464 1200 432 1228 q 495 1132 495 1173 q 464 1063 495 1090 q 388 1035 432 1035 q 312 1063 344 1035 q 280 1132 280 1090 z "},"Ì":{"ha":425,"x_min":-43,"x_max":350,"o":"m 339 0 l 85 0 l 85 987 l 339 987 l 339 0 m 350 1034 l 153 1034 l -43 1251 l 214 1251 l 350 1034 z "},"Ñ":{"ha":975,"x_min":70,"x_max":904,"o":"m 904 0 l 650 0 l 324 571 l 324 0 l 70 0 l 70 987 l 324 987 l 650 416 l 650 987 l 904 987 l 904 0 z "},"Ó":{"ha":962,"x_min":43,"x_max":917,"o":"m 917 479 q 861 215 917 326 q 707 46 805 105 q 481 -14 608 -14 q 254 46 353 -14 q 99 215 155 105 q 43 479 43 326 l 43 508 q 99 771 43 661 q 253 941 155 882 q 480 1001 352 1001 q 706 941 607 1001 q 861 771 804 882 q 917 508 917 661 l 917 479 m 659 509 q 638 666 659 603 q 577 761 617 729 q 480 793 537 793 q 381 761 420 793 q 322 666 342 729 q 302 509 302 603 l 302 479 q 322 323 302 387 q 382 227 342 260 q 481 194 422 194 q 578 227 538 194 q 638 323 618 260 q 659 479 659 387 l 659 509 m 492 1251 l 749 1251 l 557 1034 l 358 1034 l 492 1251 z "},"Ô":{"ha":962,"x_min":43,"x_max":917,"o":"m 917 479 q 861 215 917 326 q 707 46 805 105 q 481 -14 608 -14 q 254 46 353 -14 q 99 215 155 105 q 43 479 43 326 l 43 508 q 99 771 43 661 q 253 941 155 882 q 480 1001 352 1001 q 706 941 607 1001 q 861 771 804 882 q 917 508 917 661 l 917 479 m 659 509 q 638 666 659 603 q 577 761 617 729 q 480 793 537 793 q 381 761 420 793 q 322 666 342 729 q 302 509 302 603 l 302 479 q 322 323 302 387 q 382 227 342 260 q 481 194 422 194 q 578 227 538 194 q 638 323 618 260 q 659 479 659 387 l 659 509 m 777 1059 l 777 1049 l 586 1049 l 479 1135 l 373 1049 l 186 1049 l 186 1061 l 410 1251 l 549 1251 l 777 1059 z "},"Ö":{"ha":962,"x_min":43,"x_max":917,"o":"m 917 479 q 861 215 917 326 q 707 46 805 105 q 481 -14 608 -14 q 254 46 353 -14 q 99 215 155 105 q 43 479 43 326 l 43 508 q 99 771 43 661 q 253 941 155 882 q 480 1001 352 1001 q 706 941 607 1001 q 861 771 804 882 q 917 508 917 661 l 917 479 m 659 509 q 638 666 659 603 q 577 761 617 729 q 480 793 537 793 q 381 761 420 793 q 322 666 342 729 q 302 509 302 603 l 302 479 q 322 323 302 387 q 382 227 342 260 q 481 194 422 194 q 578 227 538 194 q 638 323 618 260 q 659 479 659 387 l 659 509 m 191 1132 q 223 1200 191 1173 q 299 1228 255 1228 q 375 1200 343 1228 q 407 1132 407 1173 q 375 1063 407 1090 q 299 1035 343 1035 q 223 1063 255 1035 q 191 1132 191 1090 m 548 1132 q 580 1200 548 1173 q 656 1228 612 1228 q 731 1200 700 1228 q 763 1132 763 1173 q 731 1063 763 1090 q 656 1035 700 1035 q 580 1063 612 1035 q 548 1132 548 1090 z "},"Ò":{"ha":962,"x_min":43,"x_max":917,"o":"m 917 479 q 861 215 917 326 q 707 46 805 105 q 481 -14 608 -14 q 254 46 353 -14 q 99 215 155 105 q 43 479 43 326 l 43 508 q 99 771 43 661 q 253 941 155 882 q 480 1001 352 1001 q 706 941 607 1001 q 861 771 804 882 q 917 508 917 661 l 917 479 m 659 509 q 638 666 659 603 q 577 761 617 729 q 480 793 537 793 q 381 761 420 793 q 322 666 342 729 q 302 509 302 603 l 302 479 q 322 323 302 387 q 382 227 342 260 q 481 194 422 194 q 578 227 538 194 q 638 323 618 260 q 659 479 659 387 l 659 509 m 618 1034 l 420 1034 l 224 1251 l 482 1251 l 618 1034 z "},"Ø":{"ha":958,"x_min":52,"x_max":925,"o":"m 241 -66 l 92 -66 l 716 1031 l 865 1031 l 241 -66 m 925 479 q 869 215 925 326 q 715 46 813 105 q 490 -14 616 -14 q 262 46 361 -14 q 107 215 163 105 q 52 479 52 326 l 52 508 q 107 771 52 661 q 261 941 163 882 q 488 1001 360 1001 q 714 941 615 1001 q 869 771 812 882 q 925 508 925 661 l 925 479 m 667 509 q 646 666 667 603 q 585 761 625 729 q 488 793 545 793 q 389 761 429 793 q 330 666 350 729 q 311 509 311 603 l 311 479 q 331 323 311 387 q 390 227 351 260 q 490 194 430 194 q 586 227 547 194 q 646 323 626 260 q 667 479 667 387 l 667 509 z "},"Õ":{"ha":962,"x_min":43,"x_max":917,"o":"m 917 479 q 861 215 917 326 q 707 46 805 105 q 481 -14 608 -14 q 254 46 353 -14 q 99 215 155 105 q 43 479 43 326 l 43 508 q 99 771 43 661 q 253 941 155 882 q 480 1001 352 1001 q 706 941 607 1001 q 861 771 804 882 q 917 508 917 661 l 917 479 m 659 509 q 638 666 659 603 q 577 761 617 729 q 480 793 537 793 q 381 761 420 793 q 322 666 342 729 q 302 509 302 603 l 302 479 q 322 323 302 387 q 382 227 342 260 q 481 194 422 194 q 578 227 538 194 q 638 323 618 260 q 659 479 659 387 l 659 509 z "},"Ú":{"ha":923,"x_min":67,"x_max":853,"o":"m 853 987 l 853 348 q 805 151 853 231 q 668 28 756 70 q 462 -14 581 -14 q 255 28 345 -14 q 117 151 166 70 q 67 348 67 231 l 67 987 l 323 987 l 323 348 q 338 257 323 292 q 385 207 354 222 q 462 191 416 191 q 538 207 508 191 q 584 257 568 222 q 599 348 599 292 l 599 987 l 853 987 m 469 1251 l 726 1251 l 534 1034 l 335 1034 l 469 1251 z "},"Û":{"ha":923,"x_min":67,"x_max":853,"o":"m 853 987 l 853 348 q 805 151 853 231 q 668 28 756 70 q 462 -14 581 -14 q 255 28 345 -14 q 117 151 166 70 q 67 348 67 231 l 67 987 l 323 987 l 323 348 q 338 257 323 292 q 385 207 354 222 q 462 191 416 191 q 538 207 508 191 q 584 257 568 222 q 599 348 599 292 l 599 987 l 853 987 m 754 1059 l 754 1050 l 563 1050 l 456 1136 l 350 1050 l 163 1050 l 163 1062 l 387 1252 l 526 1252 l 754 1059 z "},"Ü":{"ha":923,"x_min":67,"x_max":853,"o":"m 853 987 l 853 348 q 805 151 853 231 q 668 28 756 70 q 462 -14 581 -14 q 255 28 345 -14 q 117 151 166 70 q 67 348 67 231 l 67 987 l 323 987 l 323 348 q 338 257 323 292 q 385 207 354 222 q 462 191 416 191 q 538 207 508 191 q 584 257 568 222 q 599 348 599 292 l 599 987 l 853 987 m 168 1133 q 200 1201 168 1173 q 276 1229 232 1229 q 352 1201 320 1229 q 384 1133 384 1173 q 352 1063 384 1091 q 276 1036 320 1036 q 200 1063 232 1036 q 168 1133 168 1091 m 525 1133 q 557 1201 525 1173 q 633 1229 589 1229 q 708 1201 677 1229 q 740 1133 740 1173 q 708 1063 740 1091 q 633 1036 677 1036 q 557 1063 589 1036 q 525 1133 525 1091 z "},"Ù":{"ha":923,"x_min":67,"x_max":853,"o":"m 853 987 l 853 348 q 805 151 853 231 q 668 28 756 70 q 462 -14 581 -14 q 255 28 345 -14 q 117 151 166 70 q 67 348 67 231 l 67 987 l 323 987 l 323 348 q 338 257 323 292 q 385 207 354 222 q 462 191 416 191 q 538 207 508 191 q 584 257 568 222 q 599 348 599 292 l 599 987 l 853 987 m 595 1034 l 397 1034 l 201 1251 l 459 1251 l 595 1034 z "},"Ý":{"ha":876,"x_min":-5,"x_max":881,"o":"m 438 579 l 607 987 l 881 987 l 568 351 l 568 0 l 309 0 l 309 351 l -5 987 l 269 987 l 438 579 m 452 1252 l 709 1252 l 516 1035 l 317 1035 l 452 1252 z "},"á":{"ha":738,"x_min":28,"x_max":712,"o":"m 435 482 q 417 547 435 523 q 358 571 400 571 q 320 564 336 571 q 297 543 305 557 q 290 503 290 528 l 45 503 q 85 629 45 574 q 199 716 125 684 q 371 747 272 747 q 529 718 459 747 q 640 629 599 688 q 680 481 680 570 l 680 191 q 689 76 680 112 q 712 12 697 40 l 712 0 l 468 0 q 443 88 451 36 q 435 197 435 140 l 435 482 m 465 318 l 371 318 q 293 287 313 318 q 273 221 273 256 q 291 181 273 196 q 338 165 310 165 q 396 178 372 165 q 433 208 420 191 q 443 237 445 224 l 495 135 q 465 82 481 109 q 424 35 448 56 q 364 0 399 13 q 279 -14 329 -14 q 154 14 212 -14 q 62 92 97 42 q 28 209 28 142 q 111 387 28 322 q 373 451 195 451 l 464 451 l 465 318 m 374 1042 l 631 1042 l 438 825 l 239 825 l 374 1042 z "},"â":{"ha":738,"x_min":28,"x_max":712,"o":"m 435 482 q 417 547 435 523 q 358 571 400 571 q 320 564 336 571 q 297 543 305 557 q 290 503 290 528 l 45 503 q 85 629 45 574 q 199 716 125 684 q 371 747 272 747 q 529 718 459 747 q 640 629 599 688 q 680 481 680 570 l 680 191 q 689 76 680 112 q 712 12 697 40 l 712 0 l 468 0 q 443 88 451 36 q 435 197 435 140 l 435 482 m 465 318 l 371 318 q 293 287 313 318 q 273 221 273 256 q 291 181 273 196 q 338 165 310 165 q 396 178 372 165 q 433 208 420 191 q 443 237 445 224 l 495 135 q 465 82 481 109 q 424 35 448 56 q 364 0 399 13 q 279 -14 329 -14 q 154 14 212 -14 q 62 92 97 42 q 28 209 28 142 q 111 387 28 322 q 373 451 195 451 l 464 451 l 465 318 m 659 850 l 659 840 l 467 840 l 360 926 l 254 840 l 67 840 l 67 852 l 291 1042 l 431 1042 l 659 850 z "},"ä":{"ha":738,"x_min":28,"x_max":712,"o":"m 435 482 q 417 547 435 523 q 358 571 400 571 q 320 564 336 571 q 297 543 305 557 q 290 503 290 528 l 45 503 q 85 629 45 574 q 199 716 125 684 q 371 747 272 747 q 529 718 459 747 q 640 629 599 688 q 680 481 680 570 l 680 191 q 689 76 680 112 q 712 12 697 40 l 712 0 l 468 0 q 443 88 451 36 q 435 197 435 140 l 435 482 m 465 318 l 371 318 q 293 287 313 318 q 273 221 273 256 q 291 181 273 196 q 338 165 310 165 q 396 178 372 165 q 433 208 420 191 q 443 237 445 224 l 495 135 q 465 82 481 109 q 424 35 448 56 q 364 0 399 13 q 279 -14 329 -14 q 154 14 212 -14 q 62 92 97 42 q 28 209 28 142 q 111 387 28 322 q 373 451 195 451 l 464 451 l 465 318 m 73 923 q 104 991 73 964 q 180 1019 136 1019 q 256 991 224 1019 q 288 923 288 964 q 256 854 288 882 q 180 826 224 826 q 104 854 136 826 q 73 923 73 882 m 429 923 q 461 991 429 964 q 537 1019 493 1019 q 613 991 581 1019 q 644 923 644 964 q 613 854 644 882 q 537 826 581 826 q 461 854 493 826 q 429 923 429 882 z "},"à":{"ha":738,"x_min":28,"x_max":712,"o":"m 435 482 q 417 547 435 523 q 358 571 400 571 q 320 564 336 571 q 297 543 305 557 q 290 503 290 528 l 45 503 q 85 629 45 574 q 199 716 125 684 q 371 747 272 747 q 529 718 459 747 q 640 629 599 688 q 680 481 680 570 l 680 191 q 689 76 680 112 q 712 12 697 40 l 712 0 l 468 0 q 443 88 451 36 q 435 197 435 140 l 435 482 m 465 318 l 371 318 q 293 287 313 318 q 273 221 273 256 q 291 181 273 196 q 338 165 310 165 q 396 178 372 165 q 433 208 420 191 q 443 237 445 224 l 495 135 q 465 82 481 109 q 424 35 448 56 q 364 0 399 13 q 279 -14 329 -14 q 154 14 212 -14 q 62 92 97 42 q 28 209 28 142 q 111 387 28 322 q 373 451 195 451 l 464 451 l 465 318 m 499 825 l 302 825 l 106 1042 l 363 1042 l 499 825 z "},"å":{"ha":738,"x_min":28,"x_max":712,"o":"m 435 482 q 417 547 435 523 q 358 571 400 571 q 320 564 336 571 q 297 543 305 557 q 290 503 290 528 l 45 503 q 85 629 45 574 q 199 716 125 684 q 371 747 272 747 q 529 718 459 747 q 640 629 599 688 q 680 481 680 570 l 680 191 q 689 76 680 112 q 712 12 697 40 l 712 0 l 468 0 q 443 88 451 36 q 435 197 435 140 l 435 482 m 465 318 l 371 318 q 293 287 313 318 q 273 221 273 256 q 291 181 273 196 q 338 165 310 165 q 396 178 372 165 q 433 208 420 191 q 443 237 445 224 l 495 135 q 465 82 481 109 q 424 35 448 56 q 364 0 399 13 q 279 -14 329 -14 q 154 14 212 -14 q 62 92 97 42 q 28 209 28 142 q 111 387 28 322 q 373 451 195 451 l 464 451 l 465 318 m 207 964 q 251 1061 207 1020 q 362 1102 294 1102 q 473 1061 430 1102 q 517 964 517 1020 q 473 868 517 908 q 362 828 430 828 q 251 868 294 828 q 207 964 207 908 m 292 964 q 311 915 292 935 q 362 895 329 895 q 413 915 395 895 q 431 964 431 935 q 413 1013 431 992 q 362 1034 395 1034 q 311 1013 329 1034 q 292 964 292 992 z "},"ã":{"ha":738,"x_min":28,"x_max":712,"o":"m 435 482 q 417 547 435 523 q 358 571 400 571 q 320 564 336 571 q 297 543 305 557 q 290 503 290 528 l 45 503 q 85 629 45 574 q 199 716 125 684 q 371 747 272 747 q 529 718 459 747 q 640 629 599 688 q 680 481 680 570 l 680 191 q 689 76 680 112 q 712 12 697 40 l 712 0 l 468 0 q 443 88 451 36 q 435 197 435 140 l 435 482 m 465 318 l 371 318 q 293 287 313 318 q 273 221 273 256 q 291 181 273 196 q 338 165 310 165 q 396 178 372 165 q 433 208 420 191 q 443 237 445 224 l 495 135 q 465 82 481 109 q 424 35 448 56 q 364 0 399 13 q 279 -14 329 -14 q 154 14 212 -14 q 62 92 97 42 q 28 209 28 142 q 111 387 28 322 q 373 451 195 451 l 464 451 l 465 318 z "},"ç":{"ha":724,"x_min":33,"x_max":694,"o":"m 375 183 q 425 193 405 183 q 455 223 446 203 q 465 269 465 242 l 693 269 q 653 120 694 183 q 542 21 612 56 q 380 -14 471 -14 q 188 35 264 -14 q 72 169 111 84 q 33 360 33 253 l 33 373 q 72 565 33 480 q 187 699 110 650 q 379 747 264 747 q 544 712 473 747 q 654 610 614 677 q 693 446 694 543 l 465 446 q 456 498 465 475 q 427 536 447 522 q 373 551 406 551 q 310 527 330 551 q 283 462 290 503 q 277 373 277 422 l 277 360 q 283 270 277 310 q 310 207 289 230 q 375 183 331 183 m 481 9 l 473 -32 q 542 -65 510 -39 q 574 -149 574 -91 q 508 -276 574 -229 q 315 -324 442 -324 l 310 -184 q 338 -179 326 -184 q 356 -164 349 -174 q 362 -136 362 -153 q 341 -103 362 -113 q 274 -92 321 -94 l 295 9 l 481 9 z "},"é":{"ha":761,"x_min":40,"x_max":735,"o":"m 423 -14 q 215 36 301 -14 q 85 166 130 85 q 40 342 40 248 l 40 367 q 79 558 40 472 q 198 696 119 645 q 397 747 277 747 q 579 704 504 747 q 695 579 654 660 q 735 385 735 498 l 735 283 l 132 283 l 132 439 l 496 439 l 496 459 q 486 511 497 491 q 451 541 474 532 q 395 551 429 551 q 324 524 348 551 q 292 456 300 498 q 284 367 284 414 l 284 342 q 302 257 284 293 q 356 203 321 222 q 439 184 391 184 q 529 199 484 184 q 606 254 574 215 l 715 114 q 606 26 682 66 q 423 -14 530 -14 m 373 1042 l 630 1042 l 437 825 l 239 825 l 373 1042 z "},"ê":{"ha":761,"x_min":40,"x_max":735,"o":"m 423 -14 q 215 36 301 -14 q 85 166 130 85 q 40 342 40 248 l 40 367 q 79 558 40 472 q 198 696 119 645 q 397 747 277 747 q 579 704 504 747 q 695 579 654 660 q 735 385 735 498 l 735 283 l 132 283 l 132 439 l 496 439 l 496 459 q 486 511 497 491 q 451 541 474 532 q 395 551 429 551 q 324 524 348 551 q 292 456 300 498 q 284 367 284 414 l 284 342 q 302 257 284 293 q 356 203 321 222 q 439 184 391 184 q 529 199 484 184 q 606 254 574 215 l 715 114 q 606 26 682 66 q 423 -14 530 -14 m 658 850 l 658 841 l 467 841 l 359 927 l 254 841 l 66 841 l 66 853 l 290 1043 l 430 1043 l 658 850 z "},"ë":{"ha":761,"x_min":40,"x_max":735,"o":"m 423 -14 q 215 36 301 -14 q 85 166 130 85 q 40 342 40 248 l 40 367 q 79 558 40 472 q 198 696 119 645 q 397 747 277 747 q 579 704 504 747 q 695 579 654 660 q 735 385 735 498 l 735 283 l 132 283 l 132 439 l 496 439 l 496 459 q 486 511 497 491 q 451 541 474 532 q 395 551 429 551 q 324 524 348 551 q 292 456 300 498 q 284 367 284 414 l 284 342 q 302 257 284 293 q 356 203 321 222 q 439 184 391 184 q 529 199 484 184 q 606 254 574 215 l 715 114 q 606 26 682 66 q 423 -14 530 -14 m 72 924 q 104 992 72 964 q 180 1020 136 1020 q 256 992 224 1020 q 288 924 288 964 q 256 854 288 882 q 180 827 224 827 q 104 854 136 827 q 72 924 72 882 m 429 924 q 460 992 429 964 q 536 1020 492 1020 q 612 992 581 1020 q 644 924 644 964 q 612 854 644 882 q 536 827 581 827 q 460 854 492 827 q 429 924 429 882 z "},"è":{"ha":761,"x_min":40,"x_max":735,"o":"m 423 -14 q 215 36 301 -14 q 85 166 130 85 q 40 342 40 248 l 40 367 q 79 558 40 472 q 198 696 119 645 q 397 747 277 747 q 579 704 504 747 q 695 579 654 660 q 735 385 735 498 l 735 283 l 132 283 l 132 439 l 496 439 l 496 459 q 486 511 497 491 q 451 541 474 532 q 395 551 429 551 q 324 524 348 551 q 292 456 300 498 q 284 367 284 414 l 284 342 q 302 257 284 293 q 356 203 321 222 q 439 184 391 184 q 529 199 484 184 q 606 254 574 215 l 715 114 q 606 26 682 66 q 423 -14 530 -14 m 498 825 l 301 825 l 105 1042 l 363 1042 l 498 825 z "},"í":{"ha":406,"x_min":81,"x_max":474,"o":"m 326 0 l 81 0 l 81 734 l 326 734 l 326 0 m 217 1025 l 474 1025 l 281 808 l 83 808 l 217 1025 z "},"î":{"ha":406,"x_min":-90,"x_max":502,"o":"m 326 0 l 81 0 l 81 734 l 326 734 l 326 0 m 502 833 l 502 824 l 311 824 l 203 910 l 98 824 l -90 824 l -90 836 l 134 1026 l 274 1026 l 502 833 z "},"ï":{"ha":406,"x_min":-85,"x_max":487,"o":"m 326 0 l 81 0 l 81 734 l 326 734 l 326 0 m -85 907 q -53 975 -85 947 q 23 1003 -21 1003 q 99 975 67 1003 q 131 907 131 947 q 99 838 131 865 q 23 810 67 810 q -53 838 -21 810 q -85 907 -85 865 m 272 907 q 304 975 272 947 q 380 1003 336 1003 q 455 975 424 1003 q 487 907 487 947 q 455 838 487 865 q 380 810 424 810 q 304 838 336 810 q 272 907 272 865 z "},"ì":{"ha":406,"x_min":-51,"x_max":342,"o":"m 326 0 l 81 0 l 81 734 l 326 734 l 326 0 m 342 808 l 145 808 l -51 1025 l 207 1025 l 342 808 z "},"ñ":{"ha":786,"x_min":56,"x_max":728,"o":"m 300 0 l 56 0 l 56 734 l 284 734 l 300 577 l 300 0 m 215 385 q 250 582 214 501 q 349 705 285 663 q 498 747 413 747 q 617 720 566 747 q 698 630 669 693 q 728 458 728 567 l 728 0 l 482 0 l 482 458 q 471 517 482 498 q 438 544 460 537 q 386 551 417 551 q 331 539 353 551 q 296 507 309 528 q 277 456 283 486 q 271 389 271 426 l 215 385 z "},"ó":{"ha":781,"x_min":33,"x_max":747,"o":"m 33 373 q 74 565 33 481 q 194 699 115 650 q 389 747 273 747 q 586 699 507 747 q 706 565 666 650 q 747 373 747 481 l 747 360 q 706 168 747 253 q 587 35 666 83 q 391 -14 507 -14 q 194 35 274 -14 q 74 168 115 83 q 33 360 33 253 l 33 373 m 278 360 q 287 270 278 310 q 321 206 296 229 q 391 183 345 183 q 460 206 435 183 q 493 270 484 229 q 503 360 503 310 l 503 373 q 493 462 503 422 q 460 527 484 503 q 389 551 435 551 q 320 527 345 551 q 287 462 296 503 q 278 373 278 422 l 278 360 m 404 1042 l 661 1042 l 469 825 l 270 825 l 404 1042 z "},"ô":{"ha":781,"x_min":33,"x_max":747,"o":"m 33 373 q 74 565 33 481 q 194 699 115 650 q 389 747 273 747 q 586 699 507 747 q 706 565 666 650 q 747 373 747 481 l 747 360 q 706 168 747 253 q 587 35 666 83 q 391 -14 507 -14 q 194 35 274 -14 q 74 168 115 83 q 33 360 33 253 l 33 373 m 278 360 q 287 270 278 310 q 321 206 296 229 q 391 183 345 183 q 460 206 435 183 q 493 270 484 229 q 503 360 503 310 l 503 373 q 493 462 503 422 q 460 527 484 503 q 389 551 435 551 q 320 527 345 551 q 287 462 296 503 q 278 373 278 422 l 278 360 m 689 850 l 689 840 l 498 840 l 391 926 l 285 840 l 98 840 l 98 852 l 321 1042 l 461 1042 l 689 850 z "},"ö":{"ha":781,"x_min":33,"x_max":747,"o":"m 33 373 q 74 565 33 481 q 194 699 115 650 q 389 747 273 747 q 586 699 507 747 q 706 565 666 650 q 747 373 747 481 l 747 360 q 706 168 747 253 q 587 35 666 83 q 391 -14 507 -14 q 194 35 274 -14 q 74 168 115 83 q 33 360 33 253 l 33 373 m 278 360 q 287 270 278 310 q 321 206 296 229 q 391 183 345 183 q 460 206 435 183 q 493 270 484 229 q 503 360 503 310 l 503 373 q 493 462 503 422 q 460 527 484 503 q 389 551 435 551 q 320 527 345 551 q 287 462 296 503 q 278 373 278 422 l 278 360 m 103 923 q 135 991 103 964 q 211 1019 167 1019 q 287 991 255 1019 q 319 923 319 964 q 287 854 319 882 q 211 826 255 826 q 135 854 167 826 q 103 923 103 882 m 460 923 q 492 991 460 964 q 568 1019 524 1019 q 643 991 612 1019 q 675 923 675 964 q 643 854 675 882 q 568 826 612 826 q 492 854 524 826 q 460 923 460 882 z "},"ò":{"ha":781,"x_min":33,"x_max":747,"o":"m 33 373 q 74 565 33 481 q 194 699 115 650 q 389 747 273 747 q 586 699 507 747 q 706 565 666 650 q 747 373 747 481 l 747 360 q 706 168 747 253 q 587 35 666 83 q 391 -14 507 -14 q 194 35 274 -14 q 74 168 115 83 q 33 360 33 253 l 33 373 m 278 360 q 287 270 278 310 q 321 206 296 229 q 391 183 345 183 q 460 206 435 183 q 493 270 484 229 q 503 360 503 310 l 503 373 q 493 462 503 422 q 460 527 484 503 q 389 551 435 551 q 320 527 345 551 q 287 462 296 503 q 278 373 278 422 l 278 360 m 530 825 l 333 825 l 137 1042 l 395 1042 l 530 825 z "},"ø":{"ha":783,"x_min":33,"x_max":747,"o":"m 230 -100 l 103 -100 l 553 828 l 680 828 l 230 -100 m 33 373 q 74 565 33 481 q 194 699 115 650 q 389 747 273 747 q 586 699 507 747 q 706 565 666 650 q 747 373 747 481 l 747 360 q 706 168 747 253 q 587 35 666 83 q 391 -14 507 -14 q 194 35 274 -14 q 74 168 115 83 q 33 360 33 253 l 33 373 m 278 360 q 287 270 278 310 q 321 206 296 229 q 391 183 345 183 q 460 206 435 183 q 493 270 484 229 q 503 360 503 310 l 503 373 q 493 462 503 422 q 460 527 484 503 q 389 551 435 551 q 320 527 345 551 q 287 462 296 503 q 278 373 278 422 l 278 360 z "},"õ":{"ha":781,"x_min":33,"x_max":747,"o":"m 33 373 q 74 565 33 481 q 194 699 115 650 q 389 747 273 747 q 586 699 507 747 q 706 565 666 650 q 747 373 747 481 l 747 360 q 706 168 747 253 q 587 35 666 83 q 391 -14 507 -14 q 194 35 274 -14 q 74 168 115 83 q 33 360 33 253 l 33 373 m 278 360 q 287 270 278 310 q 321 206 296 229 q 391 183 345 183 q 460 206 435 183 q 493 270 484 229 q 503 360 503 310 l 503 373 q 493 462 503 422 q 460 527 484 503 q 389 551 435 551 q 320 527 345 551 q 287 462 296 503 q 278 373 278 422 l 278 360 z "},"ú":{"ha":786,"x_min":56,"x_max":728,"o":"m 484 734 l 728 734 l 728 0 l 500 0 l 484 180 l 484 734 m 568 332 q 537 155 568 233 q 446 32 506 77 q 302 -14 387 -14 q 124 50 193 -14 q 56 258 56 113 l 56 734 l 300 734 l 300 257 q 310 217 300 234 q 337 192 319 201 q 383 183 356 183 q 458 202 431 183 q 496 255 485 221 q 507 331 507 288 l 568 332 m 404 1042 l 661 1042 l 469 825 l 270 825 l 404 1042 z "},"û":{"ha":786,"x_min":56,"x_max":728,"o":"m 484 734 l 728 734 l 728 0 l 500 0 l 484 180 l 484 734 m 568 332 q 537 155 568 233 q 446 32 506 77 q 302 -14 387 -14 q 124 50 193 -14 q 56 258 56 113 l 56 734 l 300 734 l 300 257 q 310 217 300 234 q 337 192 319 201 q 383 183 356 183 q 458 202 431 183 q 496 255 485 221 q 507 331 507 288 l 568 332 m 689 850 l 689 840 l 498 840 l 391 926 l 285 840 l 98 840 l 98 852 l 321 1042 l 461 1042 l 689 850 z "},"ü":{"ha":786,"x_min":56,"x_max":728,"o":"m 484 734 l 728 734 l 728 0 l 500 0 l 484 180 l 484 734 m 568 332 q 537 155 568 233 q 446 32 506 77 q 302 -14 387 -14 q 124 50 193 -14 q 56 258 56 113 l 56 734 l 300 734 l 300 257 q 310 217 300 234 q 337 192 319 201 q 383 183 356 183 q 458 202 431 183 q 496 255 485 221 q 507 331 507 288 l 568 332 m 103 923 q 135 991 103 964 q 211 1019 167 1019 q 287 991 255 1019 q 319 923 319 964 q 287 854 319 882 q 211 826 255 826 q 135 854 167 826 q 103 923 103 882 m 460 923 q 492 991 460 964 q 568 1019 524 1019 q 643 991 612 1019 q 675 923 675 964 q 643 854 675 882 q 568 826 612 826 q 492 854 524 826 q 460 923 460 882 z "},"ù":{"ha":786,"x_min":56,"x_max":728,"o":"m 484 734 l 728 734 l 728 0 l 500 0 l 484 180 l 484 734 m 568 332 q 537 155 568 233 q 446 32 506 77 q 302 -14 387 -14 q 124 50 193 -14 q 56 258 56 113 l 56 734 l 300 734 l 300 257 q 310 217 300 234 q 337 192 319 201 q 383 183 356 183 q 458 202 431 183 q 496 255 485 221 q 507 331 507 288 l 568 332 m 530 825 l 332 825 l 136 1042 l 394 1042 l 530 825 z "},"ý":{"ha":725,"x_min":-6,"x_max":732,"o":"m 471 734 l 732 734 l 440 -108 q 414 -168 431 -136 q 371 -230 398 -201 q 300 -278 343 -259 q 193 -296 257 -296 q 157 -295 170 -296 q 130 -291 143 -294 q 96 -282 117 -288 l 96 -100 q 110 -100 104 -100 q 123 -100 115 -100 q 200 -86 178 -100 q 231 -50 222 -73 l 285 89 l 471 734 m 390 241 l 415 -32 l 252 -23 l -6 734 l 256 734 l 390 241 m 372 1042 l 629 1042 l 437 825 l 238 825 l 372 1042 z "},"ÿ":{"ha":725,"x_min":-6,"x_max":732,"o":"m 471 734 l 732 734 l 440 -108 q 414 -168 431 -136 q 371 -230 398 -201 q 300 -278 343 -259 q 193 -296 257 -296 q 157 -295 170 -296 q 130 -291 143 -294 q 96 -282 117 -288 l 96 -100 q 110 -100 104 -100 q 123 -100 115 -100 q 200 -86 178 -100 q 231 -50 222 -73 l 285 89 l 471 734 m 390 241 l 415 -32 l 252 -23 l -6 734 l 256 734 l 390 241 m 71 923 q 103 991 71 964 q 179 1019 135 1019 q 255 991 223 1019 q 287 923 287 964 q 255 854 287 882 q 179 826 223 826 q 103 854 135 826 q 71 923 71 882 m 428 923 q 460 991 428 964 q 536 1019 492 1019 q 611 991 580 1019 q 643 923 643 964 q 611 854 643 882 q 536 826 580 826 q 460 854 492 826 q 428 923 428 882 z "},"`":{"ha":480,"x_min":33,"x_max":426,"o":"m 426 825 l 229 825 l 33 1042 l 290 1042 l 426 825 z "},"´":{"ha":479,"x_min":59,"x_max":450,"o":"m 193 1042 l 450 1042 l 258 825 l 59 825 l 193 1042 z "},"ˆ":{"ha":713,"x_min":63,"x_max":654,"o":"m 654 850 l 654 840 l 463 840 l 356 926 l 250 840 l 63 840 l 63 852 l 287 1042 l 427 1042 l 654 850 z "},"˜":{"ha":678,"x_min":77,"x_max":609,"o":"m 609 1045 q 589 951 609 995 q 533 880 568 907 q 450 852 497 852 q 395 861 418 852 q 350 880 371 869 q 308 899 329 890 q 261 907 287 907 q 226 893 240 907 q 212 850 212 880 l 77 857 q 98 950 77 906 q 154 1021 118 994 q 236 1049 189 1049 q 286 1041 262 1049 q 332 1023 309 1033 q 377 1004 355 1013 q 425 996 400 996 q 461 1009 446 996 q 476 1053 476 1023 l 609 1045 z "},"¯":{"ha":736,"x_min":125,"x_max":603,"o":"m 603 865 l 125 865 l 125 991 l 603 991 l 603 865 z "},"¨":{"ha":694,"x_min":60,"x_max":632,"o":"m 60 923 q 92 991 60 964 q 168 1019 124 1019 q 244 991 212 1019 q 276 923 276 964 q 244 854 276 882 q 168 826 212 826 q 92 854 124 826 q 60 923 60 882 m 417 923 q 449 991 417 964 q 525 1019 481 1019 q 601 991 569 1019 q 632 923 632 964 q 601 854 632 882 q 525 826 569 826 q 449 854 481 826 q 417 923 417 882 z "},"˚":{"ha":462,"x_min":81,"x_max":391,"o":"m 81 861 q 124 959 81 918 q 236 1000 168 1000 q 347 959 304 1000 q 391 861 391 918 q 347 766 391 806 q 236 726 304 726 q 124 766 168 726 q 81 861 81 806 m 166 861 q 184 812 166 832 q 236 792 203 792 q 287 812 269 792 q 305 861 305 832 q 287 910 305 890 q 236 931 269 931 q 184 910 203 931 q 166 861 166 890 z "},"¸":{"ha":391,"x_min":56,"x_max":356,"o":"m 263 8 l 256 -33 q 324 -66 292 -40 q 356 -151 356 -92 q 290 -278 356 -230 q 97 -326 224 -326 l 92 -185 q 120 -180 109 -185 q 138 -165 132 -176 q 144 -138 144 -155 q 124 -105 144 -114 q 56 -93 103 -96 l 77 8 l 263 8 z "},"«":{"ha":723,"x_min":39,"x_max":658,"o":"m 214 342 l 39 343 l 39 352 l 223 618 l 370 618 l 214 342 m 370 74 l 223 74 l 39 339 l 39 348 l 214 349 l 370 74 m 502 342 l 327 343 l 327 352 l 511 618 l 658 618 l 502 342 m 658 74 l 511 74 l 327 339 l 327 348 l 502 349 l 658 74 z "},"»":{"ha":724,"x_min":50,"x_max":667,"o":"m 205 347 l 380 346 l 380 337 l 197 71 l 50 71 l 205 347 m 197 615 l 380 350 l 380 341 l 205 340 l 50 615 l 197 615 m 492 347 l 667 346 l 667 337 l 484 71 l 336 71 l 492 347 m 484 615 l 667 350 l 667 341 l 492 340 l 336 615 l 484 615 z "},"ı":{"ha":406,"x_min":81,"x_max":326,"o":"m 326 0 l 81 0 l 81 734 l 326 734 l 326 0 z "},"€":{"ha":808,"x_min":58,"x_max":759,"o":"m 611 191 q 671 196 642 191 q 727 211 701 200 l 759 7 q 671 -7 717 -2 q 578 -13 625 -13 q 367 29 460 -13 q 221 153 275 71 q 168 357 168 235 l 168 595 q 223 818 168 728 q 376 954 278 908 q 602 1000 473 1000 q 681 995 641 1000 q 759 979 721 989 l 727 775 q 675 790 704 784 q 618 795 646 795 q 474 752 524 795 q 424 597 424 708 l 424 357 q 448 251 424 286 q 513 203 471 215 q 611 191 555 191 m 627 533 l 58 533 l 58 648 l 627 648 l 627 533 m 627 338 l 58 338 l 58 454 l 627 454 l 627 338 z "},"µ":{"ha":786,"x_min":25,"x_max":728,"o":"m 57 385 l 254 385 l 286 -282 l 25 -282 l 57 385 m 484 734 l 728 734 l 728 0 l 500 0 l 484 180 l 484 734 m 568 332 q 537 155 568 233 q 446 32 506 77 q 302 -14 387 -14 q 124 50 193 -14 q 56 258 56 113 l 56 734 l 300 734 l 300 257 q 310 217 300 234 q 337 192 319 201 q 383 183 356 183 q 458 202 431 183 q 496 255 485 221 q 507 331 507 288 l 568 332 z "},"ſ":{"ha":372,"x_min":60,"x_max":473,"o":"m 60 0 l 60 788 q 138 987 60 918 q 357 1056 216 1056 q 416 1052 387 1056 q 473 1042 444 1048 l 456 852 q 426 858 440 856 q 389 859 411 859 q 326 841 348 859 q 304 788 304 823 l 304 0 l 60 0 z "},"α":{"ha":781,"x_min":38,"x_max":781,"o":"m 38 368 q 71 564 38 478 q 168 699 104 650 q 326 747 232 747 q 452 693 404 747 q 528 549 500 639 q 568 351 555 459 l 568 353 q 527 170 555 254 q 451 37 500 87 q 324 -14 403 -14 q 167 34 231 -14 q 71 163 103 81 q 38 353 38 246 l 38 368 m 283 353 q 292 265 283 303 q 323 205 300 227 q 386 184 346 184 q 451 200 427 184 q 487 248 475 216 q 500 330 498 281 l 500 378 q 491 454 498 422 q 471 508 484 487 q 437 540 458 530 q 387 551 417 551 q 326 526 349 551 q 293 460 302 502 q 283 368 283 418 l 283 353 m 711 734 l 711 264 q 722 201 711 220 q 755 183 732 183 q 761 183 759 183 q 764 184 763 184 l 781 -1 q 739 -12 758 -9 q 694 -14 719 -14 q 545 36 604 -14 q 467 189 487 86 l 467 578 l 497 734 l 711 734 z "},"װ":{"ha":931,"x_min":43,"x_max":826,"o":"m 569 0 l 569 623 l 509 623 l 509 821 l 826 821 l 826 0 l 569 0 m 104 0 l 104 623 l 43 623 l 43 821 l 361 821 l 361 0 l 104 0 z "},"ױ":{"ha":972,"x_min":43,"x_max":873,"o":"m 616 347 l 616 623 l 498 623 l 498 821 l 873 821 l 873 347 l 616 347 m 104 0 l 104 623 l 43 623 l 43 821 l 361 821 l 361 0 l 104 0 z "},"ײ":{"ha":1014,"x_min":33,"x_max":914,"o":"m 658 347 l 658 623 l 540 623 l 540 821 l 914 821 l 914 347 l 658 347 m 151 347 l 151 623 l 33 623 l 33 821 l 408 821 l 408 347 l 151 347 z "},"ﭏ":{"ha":884,"x_min":38,"x_max":840,"o":"m 539 0 l 38 736 l 38 981 l 295 981 l 295 781 l 825 0 l 539 0 m 840 821 l 576 291 l 411 495 l 553 821 l 840 821 z "},"א":{"ha":956,"x_min":59,"x_max":912,"o":"m 616 0 l 59 821 l 345 821 l 901 0 l 616 0 m 94 0 l 94 259 q 138 463 94 391 q 286 570 182 534 l 374 443 q 342 374 342 413 l 342 0 l 94 0 m 912 821 l 648 291 l 482 495 l 625 821 l 912 821 z "},"ב":{"ha":768,"x_min":33,"x_max":754,"o":"m 33 0 l 33 199 l 404 199 l 661 206 l 754 191 l 754 0 l 33 0 m 404 60 l 404 537 q 379 600 404 578 q 309 623 355 623 l 77 623 l 77 821 l 328 821 q 572 742 483 821 q 661 524 661 663 l 661 60 l 404 60 z "},"ג":{"ha":655,"x_min":5,"x_max":587,"o":"m 68 -11 q 37 -9 53 -11 q 5 -6 20 -8 l 5 224 q 45 219 26 221 q 82 217 64 217 q 160 227 125 217 q 220 259 194 237 q 267 317 247 281 l 267 623 l 90 623 l 90 821 l 519 821 l 519 409 q 533 274 519 340 l 587 0 l 352 0 l 302 196 l 298 196 q 254 89 287 136 q 174 16 222 42 q 68 -11 126 -11 z "},"ד":{"ha":819,"x_min":41,"x_max":771,"o":"m 41 821 l 771 821 l 771 623 l 624 623 l 624 0 l 367 0 l 367 623 l 41 623 l 41 821 z "},"ה":{"ha":892,"x_min":92,"x_max":808,"o":"m 551 0 l 551 537 q 527 600 551 578 q 456 623 502 623 l 97 623 l 97 821 l 475 821 q 720 742 631 821 q 808 524 808 663 l 808 0 l 551 0 m 92 0 l 92 282 q 114 413 92 373 q 148 460 136 452 l 351 460 q 343 398 347 435 q 340 312 340 361 l 340 0 l 92 0 z "},"ו":{"ha":465,"x_min":43,"x_max":361,"o":"m 104 0 l 104 623 l 43 623 l 43 821 l 361 821 l 361 0 l 104 0 z "},"ז":{"ha":564,"x_min":43,"x_max":526,"o":"m 165 0 l 83 615 l 43 629 l 43 821 l 526 821 l 526 623 l 334 623 l 429 0 l 165 0 z "},"ח":{"ha":899,"x_min":105,"x_max":814,"o":"m 105 0 l 106 821 l 486 821 q 730 742 646 821 q 814 511 814 663 l 814 0 l 559 0 l 557 534 q 538 600 557 576 q 486 623 519 623 l 361 623 l 361 0 l 105 0 z "},"ט":{"ha":903,"x_min":105,"x_max":849,"o":"m 477 -17 q 282 29 366 -17 q 152 157 198 75 q 105 349 105 239 l 105 821 l 361 821 l 361 316 q 393 216 361 254 q 477 178 425 178 q 561 216 529 178 q 592 316 592 254 l 592 533 q 572 602 592 580 q 509 624 552 624 q 483 623 498 624 q 448 621 467 623 l 427 783 q 513 818 465 804 q 603 831 562 831 q 784 757 718 831 q 849 553 849 684 l 849 349 q 803 157 849 239 q 673 29 756 75 q 477 -17 589 -17 z "},"י":{"ha":507,"x_min":33,"x_max":408,"o":"m 151 347 l 151 623 l 33 623 l 33 821 l 408 821 l 408 347 l 151 347 z "},"ך":{"ha":744,"x_min":49,"x_max":638,"o":"m 386 -282 l 386 623 l 49 623 l 49 821 l 638 821 l 638 -282 l 386 -282 z "},"כ":{"ha":778,"x_min":37,"x_max":673,"o":"m 280 -14 q 164 -6 224 -14 q 37 16 103 2 l 76 201 q 241 182 176 182 q 376 220 336 182 q 416 334 416 258 l 416 623 l 71 623 l 71 821 l 673 821 l 673 376 q 624 150 673 236 q 487 26 575 64 q 280 -14 399 -13 z "},"ל":{"ha":777,"x_min":38,"x_max":732,"o":"m 38 623 l 38 1042 l 295 1042 l 295 821 l 645 821 l 645 623 l 38 623 m 732 656 l 474 0 l 203 0 l 538 821 l 732 821 l 732 656 z "},"ם":{"ha":932,"x_min":106,"x_max":827,"o":"m 106 0 l 106 821 l 827 821 l 827 0 l 106 0 m 362 199 l 570 199 l 570 623 l 362 623 l 362 199 z "},"מ":{"ha":945,"x_min":62,"x_max":861,"o":"m 100 0 l 148 432 q 173 536 154 486 q 218 616 193 587 q 222 620 220 617 q 225 623 224 622 l 225 626 q 167 612 200 623 q 115 594 134 602 l 62 778 q 181 812 115 798 q 320 836 248 827 q 459 844 392 844 q 759 745 656 844 q 861 453 861 646 l 861 0 l 492 0 l 492 198 l 604 198 l 604 488 q 579 596 604 557 q 510 636 554 636 q 430 594 456 636 q 396 467 404 551 l 353 0 l 100 0 z "},"ן":{"ha":465,"x_min":45,"x_max":361,"o":"m 109 -282 l 109 623 l 45 623 l 45 821 l 361 821 l 361 -282 l 109 -282 z "},"נ":{"ha":583,"x_min":40,"x_max":477,"o":"m 209 -14 q 129 -8 166 -14 q 41 7 92 -3 l 40 199 q 138 193 91 193 q 200 215 180 193 q 220 285 220 238 l 220 623 l 84 623 l 84 821 l 477 821 l 477 264 q 406 61 477 135 q 209 -14 335 -14 z "},"ס":{"ha":906,"x_min":25,"x_max":844,"o":"m 466 -17 q 271 32 355 -17 q 138 168 186 80 q 87 372 90 255 l 87 406 q 95 478 86 439 q 119 553 104 517 q 149 611 134 589 q 154 617 152 614 q 159 623 157 621 l 158 627 q 113 616 141 623 q 73 606 85 610 l 25 791 q 150 819 81 807 q 293 838 219 831 q 433 844 366 844 q 658 799 566 844 q 797 665 750 754 q 844 444 844 576 l 844 372 q 797 168 844 255 q 665 32 750 80 q 466 -17 580 -17 m 465 193 q 529 216 502 193 q 572 278 557 238 q 587 370 587 317 l 587 439 q 574 548 587 505 q 534 614 561 592 q 467 636 507 636 q 398 612 426 636 q 357 542 370 589 q 343 424 343 494 l 343 370 q 358 278 343 317 q 401 216 374 238 q 465 193 429 193 z "},"ע":{"ha":904,"x_min":40,"x_max":799,"o":"m 382 -22 q 221 -8 307 -22 q 40 40 135 5 l 92 227 q 229 185 166 199 q 343 170 292 171 q 489 215 436 170 q 542 347 542 259 l 542 821 l 799 821 l 799 361 q 746 150 799 235 q 600 21 694 64 q 382 -22 507 -22 m 73 821 l 331 821 l 446 254 q 467 191 453 221 q 510 140 480 161 l 319 140 q 244 193 282 151 q 194 283 205 234 l 73 821 z "},"ף":{"ha":896,"x_min":85,"x_max":791,"o":"m 791 821 l 791 -282 l 537 -282 l 537 623 l 382 623 q 372 573 376 597 q 367 526 368 549 q 365 481 365 504 l 365 425 q 396 422 379 422 q 419 422 412 421 l 419 260 q 314 249 370 248 q 207 264 258 250 q 117 302 155 277 l 117 393 q 123 478 118 435 q 139 559 128 521 q 164 623 149 597 l 85 623 l 85 821 l 791 821 z "},"פ":{"ha":948,"x_min":85,"x_max":843,"o":"m 427 -20 q 266 -6 353 -20 q 105 35 179 8 l 152 221 q 292 192 222 202 q 407 182 361 182 q 542 220 498 182 q 586 334 586 258 l 586 623 l 383 623 q 369 556 372 583 q 365 496 365 529 l 365 467 q 396 464 379 465 q 419 465 412 463 l 419 302 q 314 291 370 290 q 207 306 258 292 q 118 345 155 320 l 118 406 q 130 527 118 470 q 164 623 141 583 l 85 623 l 85 821 l 843 821 l 843 368 q 786 142 843 228 q 634 19 728 57 q 427 -20 539 -20 z "},"ץ":{"ha":836,"x_min":9,"x_max":821,"o":"m 379 -282 l 379 235 q 355 306 379 269 l 9 821 l 294 821 l 491 484 l 572 366 q 612 289 600 326 q 624 206 624 252 l 624 -282 l 379 -282 m 555 288 l 397 492 l 534 821 l 821 821 l 555 288 z "},"צ":{"ha":848,"x_min":9,"x_max":821,"o":"m 86 0 l 86 199 l 426 199 l 9 821 l 294 821 l 498 484 l 755 112 l 755 0 l 86 0 m 555 288 l 397 492 l 534 821 l 821 821 l 555 288 z "},"ק":{"ha":930,"x_min":106,"x_max":825,"o":"m 414 0 l 414 193 q 529 240 490 197 q 568 372 568 283 l 568 623 l 106 623 l 106 821 l 825 821 l 825 376 q 777 175 825 257 q 636 49 728 93 q 414 0 544 5 m 109 -282 l 109 277 q 130 408 109 368 q 163 455 152 448 l 367 455 q 359 394 362 431 q 355 307 355 357 l 355 -282 l 109 -282 z "},"ר":{"ha":695,"x_min":16,"x_max":612,"o":"m 355 0 l 355 527 q 328 599 355 575 q 249 623 302 623 l 16 623 l 16 821 l 271 821 q 521 740 431 821 q 612 515 612 659 l 612 0 l 355 0 z "},"ש":{"ha":1254,"x_min":105,"x_max":1149,"o":"m 353 821 l 353 223 q 471 185 406 200 q 589 171 536 171 q 752 197 682 171 q 861 278 822 222 q 901 422 901 334 l 901 821 l 1149 821 l 1149 392 q 1106 207 1149 286 q 987 76 1063 128 q 812 -2 911 24 q 600 -28 713 -28 q 352 1 481 -28 q 105 85 222 29 l 105 821 l 353 821 m 483 279 q 494 353 490 304 q 498 454 498 402 l 498 821 l 747 821 l 747 510 q 731 377 747 441 q 690 280 715 312 l 483 279 z "},"ת":{"ha":912,"x_min":7,"x_max":829,"o":"m 500 821 q 745 742 661 821 q 829 511 829 663 l 829 0 l 573 0 l 571 534 q 553 600 571 576 q 501 623 534 623 l 400 623 q 394 546 395 584 q 392 479 392 507 l 392 264 q 320 59 392 133 q 123 -14 248 -14 q 64 -12 90 -14 q 7 -4 37 -9 l 7 192 q 28 192 18 192 q 51 191 39 191 q 117 214 93 191 q 142 284 142 237 l 142 454 q 151 534 142 486 q 181 623 159 583 l 66 623 l 66 821 l 500 821 z "},"ײַ":{"ha":1014,"x_min":33,"x_max":914,"o":"m 658 347 l 658 623 l 540 623 l 540 821 l 914 821 l 914 347 l 658 347 m 151 347 l 151 623 l 33 623 l 33 821 l 408 821 l 408 347 l 151 347 m 104 -222 l 104 -119 l 453 -119 l 453 -222 l 104 -222 z "},"ﬠ":{"ha":924,"x_min":40,"x_max":819,"o":"m 382 -27 q 40 41 229 -27 l 92 228 q 229 186 166 200 q 343 171 292 172 q 488 216 436 171 q 542 349 539 260 l 562 821 l 819 821 l 800 362 q 680 73 791 174 q 382 -27 569 -27 m 87 821 l 345 821 l 460 254 q 481 191 468 220 q 524 140 495 161 l 334 140 q 258 193 296 151 q 209 283 220 234 l 87 821 z "},"ﬡ":{"ha":1303,"x_min":59,"x_max":1259,"o":"m 892 0 l 59 821 l 396 821 l 1239 0 l 892 0 m 123 0 l 123 380 q 179 577 123 503 q 355 687 235 651 l 415 602 q 381 507 392 554 q 370 380 370 459 l 370 0 l 123 0 m 941 168 l 775 371 l 972 821 l 1259 821 l 941 168 z "},"ﬢ":{"ha":1008,"x_min":41,"x_max":961,"o":"m 41 821 l 961 821 l 961 631 l 779 610 l 779 0 l 522 0 l 522 623 l 41 623 l 41 821 z "},"ﬣ":{"ha":1138,"x_min":93,"x_max":1055,"o":"m 93 0 l 93 271 q 101 350 93 315 q 116 406 109 386 q 123 424 124 427 l 352 456 l 363 446 q 357 400 362 431 q 349 333 353 369 q 345 270 345 298 l 345 0 l 93 0 m 798 0 l 798 527 q 771 599 798 575 q 692 623 745 623 l 97 623 l 97 821 l 713 821 q 964 740 874 821 q 1055 515 1055 659 l 1055 0 l 798 0 z "},"ﬤ":{"ha":1050,"x_min":37,"x_max":945,"o":"m 444 -28 q 250 -14 359 -28 q 37 24 140 -1 l 74 222 q 274 190 177 201 q 435 179 372 179 q 631 228 574 179 q 688 364 688 276 l 688 623 l 73 623 l 73 821 l 945 821 l 945 362 q 882 143 945 230 q 708 15 820 57 q 444 -28 595 -28 z "},"ﬥ":{"ha":1002,"x_min":38,"x_max":957,"o":"m 677 623 l 38 623 l 38 981 l 295 981 l 295 821 l 913 821 l 677 623 m 957 656 l 578 0 l 307 0 l 764 821 l 957 821 l 957 656 z "},"ﬦ":{"ha":1253,"x_min":114,"x_max":1144,"o":"m 114 0 l 114 821 l 1144 821 l 1144 0 l 114 0 m 371 199 l 887 199 l 887 623 l 371 623 l 371 199 z "},"ﬧ":{"ha":926,"x_min":16,"x_max":842,"o":"m 585 0 l 585 527 q 559 599 585 575 q 479 623 533 623 l 16 623 l 16 821 l 500 821 q 751 740 661 821 q 842 515 842 659 l 842 0 l 585 0 z "},"ﬨ":{"ha":1255,"x_min":7,"x_max":1172,"o":"m 844 821 q 1088 742 1004 821 q 1172 511 1172 663 l 1172 0 l 916 0 l 915 534 q 896 600 915 576 q 844 623 877 623 l 400 623 q 394 546 395 584 q 392 479 392 507 l 392 264 q 320 59 392 133 q 123 -14 248 -14 q 64 -12 90 -14 q 7 -4 37 -9 l 7 192 q 28 192 18 192 q 51 191 39 191 q 117 214 93 191 q 142 284 142 237 l 142 454 q 151 534 142 486 q 181 623 159 583 l 66 623 l 66 821 l 844 821 z "},"שׁ":{"ha":1254,"x_min":105,"x_max":1149,"o":"m 353 821 l 353 223 q 471 185 406 200 q 589 171 536 171 q 752 197 682 171 q 861 278 822 222 q 901 422 901 334 l 901 821 l 1149 821 l 1149 392 q 1106 207 1149 286 q 987 76 1063 128 q 812 -2 911 24 q 600 -28 713 -28 q 352 1 481 -28 q 105 85 222 29 l 105 821 l 353 821 m 483 279 q 494 353 490 304 q 498 454 498 402 l 498 821 l 747 821 l 747 510 q 731 377 747 441 q 690 280 715 312 l 483 279 m 1013 924 q 958 943 980 924 q 935 991 935 962 q 958 1041 935 1021 q 1013 1060 980 1060 q 1068 1041 1046 1060 q 1089 991 1089 1021 q 1068 943 1089 962 q 1013 924 1046 924 z "},"שׂ":{"ha":1254,"x_min":105,"x_max":1149,"o":"m 353 821 l 353 223 q 471 185 406 200 q 589 171 536 171 q 752 197 682 171 q 861 278 822 222 q 901 422 901 334 l 901 821 l 1149 821 l 1149 392 q 1106 207 1149 286 q 987 76 1063 128 q 812 -2 911 24 q 600 -28 713 -28 q 352 1 481 -28 q 105 85 222 29 l 105 821 l 353 821 m 483 279 q 494 353 490 304 q 498 454 498 402 l 498 821 l 747 821 l 747 510 q 731 377 747 441 q 690 280 715 312 l 483 279 m 219 924 q 164 943 186 924 q 142 991 142 962 q 164 1041 142 1021 q 219 1060 186 1060 q 275 1041 253 1060 q 296 991 296 1021 q 275 943 296 962 q 219 924 253 924 z "},"שּׁ":{"ha":1254,"x_min":105,"x_max":1149,"o":"m 353 821 l 353 223 q 471 185 406 200 q 589 171 536 171 q 752 197 682 171 q 861 278 822 222 q 901 422 901 334 l 901 821 l 1149 821 l 1149 392 q 1106 207 1149 286 q 987 76 1063 128 q 812 -2 911 24 q 600 -28 713 -28 q 352 1 481 -28 q 105 85 222 29 l 105 821 l 353 821 m 483 279 q 494 353 490 304 q 498 454 498 402 l 498 821 l 747 821 l 747 510 q 731 377 747 441 q 690 280 715 312 l 483 279 m 820 342 q 765 361 787 342 q 743 409 743 380 q 765 458 743 439 q 820 477 787 477 q 875 458 854 477 q 897 409 897 439 q 875 361 897 380 q 820 342 854 342 m 1013 924 q 958 943 980 924 q 935 991 935 962 q 958 1041 935 1021 q 1013 1060 980 1060 q 1068 1041 1046 1060 q 1089 991 1089 1021 q 1068 943 1089 962 q 1013 924 1046 924 z "},"שּׂ":{"ha":1254,"x_min":105,"x_max":1149,"o":"m 353 821 l 353 223 q 471 185 406 200 q 589 171 536 171 q 752 197 682 171 q 861 278 822 222 q 901 422 901 334 l 901 821 l 1149 821 l 1149 392 q 1106 207 1149 286 q 987 76 1063 128 q 812 -2 911 24 q 600 -28 713 -28 q 352 1 481 -28 q 105 85 222 29 l 105 821 l 353 821 m 483 279 q 494 353 490 304 q 498 454 498 402 l 498 821 l 747 821 l 747 510 q 731 377 747 441 q 690 280 715 312 l 483 279 m 820 342 q 765 361 787 342 q 743 409 743 380 q 765 458 743 439 q 820 477 787 477 q 875 458 854 477 q 897 409 897 439 q 875 361 897 380 q 820 342 854 342 m 219 924 q 164 943 186 924 q 142 991 142 962 q 164 1041 142 1021 q 219 1060 186 1060 q 275 1041 253 1060 q 296 991 296 1021 q 275 943 296 962 q 219 924 253 924 z "},"אַ":{"ha":956,"x_min":59,"x_max":912,"o":"m 616 0 l 59 821 l 345 821 l 901 0 l 616 0 m 94 0 l 94 259 q 138 463 94 391 q 286 570 182 534 l 374 443 q 342 374 342 413 l 342 0 l 94 0 m 912 821 l 648 291 l 482 495 l 625 821 l 912 821 m 304 -222 l 304 -119 l 653 -119 l 653 -222 l 304 -222 z "},"אָ":{"ha":956,"x_min":59,"x_max":912,"o":"m 616 0 l 59 821 l 345 821 l 901 0 l 616 0 m 94 0 l 94 259 q 138 463 94 391 q 286 570 182 534 l 374 443 q 342 374 342 413 l 342 0 l 94 0 m 912 821 l 648 291 l 482 495 l 625 821 l 912 821 m 478 -415 q 424 -396 446 -415 q 401 -348 401 -377 q 411 -313 401 -327 q 432 -279 421 -299 q 448 -222 444 -260 l 327 -222 l 327 -119 l 630 -119 l 630 -222 l 508 -222 q 524 -279 513 -260 q 545 -313 535 -299 q 555 -348 555 -327 q 533 -396 555 -377 q 478 -415 512 -415 z "},"אּ":{"ha":956,"x_min":59,"x_max":912,"o":"m 616 0 l 59 821 l 345 821 l 901 0 l 616 0 m 94 0 l 94 259 q 138 463 94 391 q 286 570 182 534 l 374 443 q 342 374 342 413 l 342 0 l 94 0 m 912 821 l 648 291 l 482 495 l 625 821 l 912 821 m 435 23 q 380 42 402 23 q 358 90 358 61 q 380 139 358 120 q 435 158 402 158 q 491 139 469 158 q 512 90 512 120 q 491 42 512 61 q 435 23 469 23 z "},"בּ":{"ha":768,"x_min":33,"x_max":754,"o":"m 33 0 l 33 199 l 404 199 l 661 206 l 754 191 l 754 0 l 33 0 m 404 60 l 404 537 q 379 600 404 578 q 309 623 355 623 l 77 623 l 77 821 l 328 821 q 572 742 483 821 q 661 524 661 663 l 661 60 l 404 60 m 225 342 q 170 361 192 342 q 148 409 148 380 q 170 458 148 439 q 225 477 192 477 q 280 458 259 477 q 302 409 302 439 q 280 361 302 380 q 225 342 259 342 z "},"גּ":{"ha":655,"x_min":5,"x_max":587,"o":"m 68 -11 q 37 -9 53 -11 q 5 -6 20 -8 l 5 224 q 45 219 26 221 q 82 217 64 217 q 160 227 125 217 q 220 259 194 237 q 267 317 247 281 l 267 623 l 90 623 l 90 821 l 519 821 l 519 409 q 533 274 519 340 l 587 0 l 352 0 l 302 196 l 298 196 q 254 89 287 136 q 174 16 222 42 q 68 -11 126 -11 m 103 342 q 48 361 70 342 q 26 409 26 380 q 48 458 26 439 q 103 477 70 477 q 158 458 137 477 q 180 409 180 439 q 158 361 180 380 q 103 342 137 342 z "},"דּ":{"ha":819,"x_min":41,"x_max":771,"o":"m 41 821 l 771 821 l 771 623 l 624 623 l 624 0 l 367 0 l 367 623 l 41 623 l 41 821 m 186 342 q 131 361 153 342 q 109 409 109 380 q 131 458 109 439 q 186 477 153 477 q 242 458 220 477 q 263 409 263 439 q 242 361 263 380 q 186 342 220 342 z "},"הּ":{"ha":892,"x_min":92,"x_max":808,"o":"m 551 0 l 551 537 q 527 600 551 578 q 456 623 502 623 l 97 623 l 97 821 l 475 821 q 720 742 631 821 q 808 524 808 663 l 808 0 l 551 0 m 92 0 l 92 282 q 114 413 92 373 q 148 460 136 452 l 351 460 q 343 398 347 435 q 340 312 340 361 l 340 0 l 92 0 m 446 342 q 390 361 412 342 q 368 409 368 380 q 390 458 368 439 q 446 477 412 477 q 501 458 479 477 q 522 409 522 439 q 501 361 522 380 q 446 342 479 342 z "},"וּ":{"ha":465,"x_min":-77,"x_max":361,"o":"m 104 0 l 104 623 l 43 623 l 43 821 l 361 821 l 361 0 l 104 0 m 1 342 q -55 361 -33 342 q -77 409 -77 380 q -55 458 -77 439 q 1 477 -33 477 q 56 458 35 477 q 77 409 77 439 q 56 361 77 380 q 1 342 35 342 z "},"זּ":{"ha":564,"x_min":43,"x_max":543,"o":"m 165 0 l 83 615 l 43 629 l 43 821 l 526 821 l 526 623 l 334 623 l 429 0 l 165 0 m 467 342 q 411 361 433 342 q 389 409 389 380 q 411 458 389 439 q 467 477 433 477 q 522 458 500 477 q 543 409 543 439 q 522 361 543 380 q 467 342 500 342 z "},"טּ":{"ha":903,"x_min":105,"x_max":849,"o":"m 477 -17 q 282 29 366 -17 q 152 157 198 75 q 105 349 105 239 l 105 821 l 361 821 l 361 316 q 393 216 361 254 q 477 178 425 178 q 561 216 529 178 q 592 316 592 254 l 592 533 q 572 602 592 580 q 509 624 552 624 q 483 623 498 624 q 448 621 467 623 l 427 783 q 513 818 465 804 q 603 831 562 831 q 784 757 718 831 q 849 553 849 684 l 849 349 q 803 157 849 239 q 673 29 756 75 q 477 -17 589 -17 m 477 342 q 421 361 444 342 q 399 409 399 380 q 421 458 399 439 q 477 477 444 477 q 532 458 511 477 q 553 409 553 439 q 532 361 553 380 q 477 342 511 342 z "},"יּ":{"ha":507,"x_min":-53,"x_max":408,"o":"m 151 347 l 151 623 l 33 623 l 33 821 l 408 821 l 408 347 l 151 347 m 24 435 q -31 454 -9 435 q -53 503 -53 473 q -31 551 -53 532 q 24 570 -9 570 q 80 551 58 570 q 101 503 101 532 q 80 454 101 473 q 24 435 58 435 z "},"ךּ":{"ha":744,"x_min":49,"x_max":638,"o":"m 386 -282 l 386 623 l 49 623 l 49 821 l 638 821 l 638 -282 l 386 -282 m 199 406 q 143 425 165 406 q 121 473 121 444 q 143 522 121 503 q 199 541 165 541 q 254 522 233 541 q 275 473 275 503 q 254 425 275 444 q 199 406 233 406 z "},"כּ":{"ha":778,"x_min":37,"x_max":673,"o":"m 280 -14 q 164 -6 224 -14 q 37 16 103 2 l 76 201 q 241 182 176 182 q 376 220 336 182 q 416 334 416 258 l 416 623 l 71 623 l 71 821 l 673 821 l 673 376 q 624 150 673 236 q 487 26 575 64 q 280 -14 399 -13 m 230 342 q 175 361 197 342 q 153 409 153 380 q 175 458 153 439 q 230 477 197 477 q 285 458 264 477 q 307 409 307 439 q 285 361 307 380 q 230 342 264 342 z "},"לּ":{"ha":777,"x_min":38,"x_max":732,"o":"m 38 623 l 38 1042 l 295 1042 l 295 821 l 645 821 l 645 623 l 38 623 m 732 656 l 474 0 l 203 0 l 538 821 l 732 821 l 732 656 m 193 372 q 137 391 159 372 q 115 439 115 410 q 137 488 115 469 q 193 507 159 507 q 248 488 227 507 q 269 439 269 469 q 248 391 269 410 q 193 372 227 372 z "},"מּ":{"ha":945,"x_min":62,"x_max":861,"o":"m 100 0 l 148 432 q 173 536 154 486 q 218 616 193 587 q 222 620 220 617 q 225 623 224 622 l 225 626 q 167 612 200 623 q 115 594 134 602 l 62 778 q 181 812 115 798 q 320 836 248 827 q 459 844 392 844 q 759 745 656 844 q 861 453 861 646 l 861 0 l 492 0 l 492 198 l 604 198 l 604 488 q 579 596 604 557 q 510 636 554 636 q 430 594 456 636 q 396 467 404 551 l 353 0 l 100 0 m 500 342 q 445 361 467 342 q 423 409 423 380 q 445 458 423 439 q 500 477 467 477 q 556 458 534 477 q 577 409 577 439 q 556 361 577 380 q 500 342 534 342 z "},"נּ":{"ha":583,"x_min":5,"x_max":477,"o":"m 209 -14 q 129 -8 166 -14 q 41 7 92 -3 l 40 199 q 138 193 91 193 q 200 215 180 193 q 220 285 220 238 l 220 623 l 84 623 l 84 821 l 477 821 l 477 264 q 406 61 477 135 q 209 -14 335 -14 m 82 342 q 27 361 49 342 q 5 409 5 380 q 27 458 5 439 q 82 477 49 477 q 137 458 116 477 q 159 409 159 439 q 137 361 159 380 q 82 342 116 342 z "},"סּ":{"ha":906,"x_min":25,"x_max":844,"o":"m 466 -17 q 271 32 355 -17 q 138 168 186 80 q 87 372 90 255 l 87 406 q 95 478 86 439 q 119 553 104 517 q 149 611 134 589 q 154 617 152 614 q 159 623 157 621 l 158 627 q 113 616 141 623 q 73 606 85 610 l 25 791 q 150 819 81 807 q 293 838 219 831 q 433 844 366 844 q 658 799 566 844 q 797 665 750 754 q 844 444 844 576 l 844 372 q 797 168 844 255 q 665 32 750 80 q 466 -17 580 -17 m 465 193 q 529 216 502 193 q 572 278 557 238 q 587 370 587 317 l 587 439 q 574 548 587 505 q 534 614 561 592 q 467 636 507 636 q 398 612 426 636 q 357 542 370 589 q 343 424 343 494 l 343 370 q 358 278 343 317 q 401 216 374 238 q 465 193 429 193 m 466 342 q 411 361 433 342 q 389 409 389 380 q 411 458 389 439 q 466 477 433 477 q 521 458 500 477 q 543 409 543 439 q 521 361 543 380 q 466 342 500 342 z "},"ףּ":{"ha":896,"x_min":85,"x_max":791,"o":"m 791 821 l 791 -282 l 537 -282 l 537 623 l 382 623 q 372 573 376 597 q 367 526 368 549 q 365 481 365 504 l 365 425 q 396 422 379 422 q 419 422 412 421 l 419 260 q 314 249 370 248 q 207 264 258 250 q 117 302 155 277 l 117 393 q 123 478 118 435 q 139 559 128 521 q 164 623 149 597 l 85 623 l 85 821 l 791 821 m 452 446 q 396 465 418 446 q 374 513 374 484 q 396 562 374 543 q 452 581 418 581 q 507 562 486 581 q 528 513 528 543 q 507 465 528 484 q 452 446 486 446 z "},"פּ":{"ha":948,"x_min":85,"x_max":843,"o":"m 427 -20 q 266 -6 353 -20 q 105 35 179 8 l 152 221 q 292 192 222 202 q 407 182 361 182 q 542 220 498 182 q 586 334 586 258 l 586 623 l 383 623 q 369 556 372 583 q 365 496 365 529 l 365 467 q 396 464 379 465 q 419 465 412 463 l 419 302 q 314 291 370 290 q 207 306 258 292 q 118 345 155 320 l 118 406 q 130 527 118 470 q 164 623 141 583 l 85 623 l 85 821 l 843 821 l 843 368 q 786 142 843 228 q 634 19 728 57 q 427 -20 539 -20 m 482 460 q 427 479 449 460 q 405 528 405 498 q 427 576 405 557 q 482 595 449 595 q 537 576 516 595 q 559 528 559 557 q 537 479 559 498 q 482 460 516 460 z "},"צּ":{"ha":848,"x_min":9,"x_max":821,"o":"m 86 0 l 86 199 l 426 199 l 9 821 l 294 821 l 498 484 l 755 112 l 755 0 l 86 0 m 555 288 l 397 492 l 534 821 l 821 821 l 555 288 m 189 245 q 133 264 155 245 q 111 313 111 283 q 133 361 111 342 q 189 380 155 380 q 244 361 222 380 q 265 313 265 342 q 244 264 265 283 q 189 245 222 245 z "},"קּ":{"ha":930,"x_min":106,"x_max":825,"o":"m 414 0 l 414 193 q 529 240 490 197 q 568 372 568 283 l 568 623 l 106 623 l 106 821 l 825 821 l 825 376 q 777 175 825 257 q 636 49 728 93 q 414 0 544 5 m 109 -282 l 109 277 q 130 408 109 368 q 163 455 152 448 l 367 455 q 359 394 362 431 q 355 307 355 357 l 355 -282 l 109 -282 m 463 342 q 408 361 430 342 q 386 409 386 380 q 408 458 386 439 q 463 477 430 477 q 518 458 497 477 q 540 409 540 439 q 518 361 540 380 q 463 342 497 342 z "},"רּ":{"ha":695,"x_min":16,"x_max":612,"o":"m 355 0 l 355 527 q 328 599 355 575 q 249 623 302 623 l 16 623 l 16 821 l 271 821 q 521 740 431 821 q 612 515 612 659 l 612 0 l 355 0 m 174 342 q 118 361 140 342 q 96 409 96 380 q 118 458 96 439 q 174 477 140 477 q 229 458 208 477 q 250 409 250 439 q 229 361 250 380 q 174 342 208 342 z "},"שּ":{"ha":1254,"x_min":105,"x_max":1149,"o":"m 353 821 l 353 223 q 471 185 406 200 q 589 171 536 171 q 752 197 682 171 q 861 278 822 222 q 901 422 901 334 l 901 821 l 1149 821 l 1149 392 q 1106 207 1149 286 q 987 76 1063 128 q 812 -2 911 24 q 600 -28 713 -28 q 352 1 481 -28 q 105 85 222 29 l 105 821 l 353 821 m 483 279 q 494 353 490 304 q 498 454 498 402 l 498 821 l 747 821 l 747 510 q 731 377 747 441 q 690 280 715 312 l 483 279 m 820 342 q 765 361 787 342 q 743 409 743 380 q 765 458 743 439 q 820 477 787 477 q 875 458 854 477 q 897 409 897 439 q 875 361 897 380 q 820 342 854 342 z "},"תּ":{"ha":912,"x_min":7,"x_max":829,"o":"m 500 821 q 745 742 661 821 q 829 511 829 663 l 829 0 l 573 0 l 571 534 q 553 600 571 576 q 501 623 534 623 l 400 623 q 394 546 395 584 q 392 479 392 507 l 392 264 q 320 59 392 133 q 123 -14 248 -14 q 64 -12 90 -14 q 7 -4 37 -9 l 7 192 q 28 192 18 192 q 51 191 39 191 q 117 214 93 191 q 142 284 142 237 l 142 454 q 151 534 142 486 q 181 623 159 583 l 66 623 l 66 821 l 500 821 m 479 342 q 424 361 446 342 q 401 409 401 380 q 424 458 401 439 q 479 477 446 477 q 534 458 513 477 q 555 409 555 439 q 534 361 555 380 q 479 342 513 342 z "},"וֹ":{"ha":465,"x_min":43,"x_max":361,"o":"m 104 0 l 104 623 l 43 623 l 43 821 l 361 821 l 361 0 l 104 0 m 206 924 q 150 943 172 924 q 128 991 128 962 q 150 1041 128 1021 q 205 1060 172 1060 q 261 1041 239 1060 q 282 991 282 1021 q 261 943 282 962 q 206 924 239 924 z "},"בֿ":{"ha":768,"x_min":33,"x_max":754,"o":"m 33 0 l 33 199 l 404 199 l 661 206 l 754 191 l 754 0 l 33 0 m 404 60 l 404 537 q 379 600 404 578 q 309 623 355 623 l 77 623 l 77 821 l 328 821 q 572 742 483 821 q 661 524 661 663 l 661 60 l 404 60 m 140 930 l 140 1056 l 568 1056 l 568 930 l 140 930 z "},"כֿ":{"ha":778,"x_min":37,"x_max":673,"o":"m 280 -14 q 164 -6 224 -14 q 37 16 103 2 l 76 201 q 241 182 176 182 q 376 220 336 182 q 416 334 416 258 l 416 623 l 71 623 l 71 821 l 673 821 l 673 376 q 624 150 673 236 q 487 26 575 64 q 280 -14 399 -13 m 151 930 l 151 1056 l 579 1056 l 579 930 l 151 930 z "},"פֿ":{"ha":948,"x_min":85,"x_max":843,"o":"m 427 -20 q 266 -6 353 -20 q 105 35 179 8 l 152 221 q 292 192 222 202 q 407 182 361 182 q 542 220 498 182 q 586 334 586 258 l 586 623 l 383 623 q 369 556 372 583 q 365 496 365 529 l 365 467 q 396 464 379 465 q 419 465 412 463 l 419 302 q 314 291 370 290 q 207 306 258 292 q 118 345 155 320 l 118 406 q 130 527 118 470 q 164 623 141 583 l 85 623 l 85 821 l 843 821 l 843 368 q 786 142 843 228 q 634 19 728 57 q 427 -20 539 -20 m 239 930 l 239 1056 l 667 1056 l 667 930 l 239 930 z "},"₀":{"ha":523,"x_min":45,"x_max":478,"o":"m 478 -39 q 417 -199 478 -148 q 262 -250 356 -250 q 106 -199 167 -250 q 45 -39 45 -148 l 45 85 q 105 247 45 194 q 260 300 166 300 q 417 247 355 300 q 478 85 478 194 l 478 -39 m 317 88 q 301 153 317 136 q 260 170 286 170 q 221 153 236 170 q 207 88 207 136 l 207 -41 q 222 -105 207 -91 q 262 -120 237 -120 q 301 -105 286 -120 q 317 -41 317 -91 l 317 88 z "},"₁":{"ha":523,"x_min":98,"x_max":374,"o":"m 374 -243 l 214 -243 l 214 102 l 98 82 l 98 205 l 361 289 l 374 289 l 374 -243 z "},"₂":{"ha":523,"x_min":33,"x_max":475,"o":"m 475 -243 l 45 -243 l 45 -135 l 239 33 q 287 87 271 59 q 303 126 303 115 q 290 159 303 147 q 252 170 277 170 q 210 151 224 170 q 195 107 195 131 l 33 107 q 59 204 33 160 q 132 274 85 248 q 243 300 179 300 q 407 255 349 300 q 464 125 464 210 q 448 52 464 83 q 396 -12 431 20 q 305 -84 361 -43 l 260 -115 l 475 -115 l 475 -243 z "},"₃":{"ha":523,"x_min":26,"x_max":483,"o":"m 251 81 q 297 95 282 81 q 311 131 311 108 q 299 156 311 142 q 252 170 287 170 q 215 164 231 170 q 198 145 198 157 l 37 145 q 67 232 37 198 q 145 283 97 267 q 247 300 193 300 q 410 260 347 300 q 473 145 473 221 q 445 71 473 100 q 373 29 418 43 q 277 15 328 15 l 189 15 l 189 81 l 251 81 m 189 42 l 277 42 q 379 32 332 42 q 454 -7 426 22 q 483 -92 483 -36 q 415 -210 483 -168 q 246 -251 347 -251 q 146 -235 197 -251 q 61 -180 95 -218 q 26 -77 26 -142 l 189 -77 q 207 -106 189 -92 q 258 -121 225 -121 q 307 -105 294 -121 q 321 -73 321 -90 q 302 -33 321 -45 q 251 -22 284 -22 l 189 -22 l 189 42 z "},"₄":{"ha":523,"x_min":36,"x_max":480,"o":"m 480 -140 l 47 -140 l 36 -33 l 269 292 l 395 292 l 259 85 l 186 -9 l 480 -9 l 480 -140 m 430 -243 l 268 -243 l 268 292 l 430 292 l 430 -243 z "},"₅":{"ha":523,"x_min":37,"x_max":473,"o":"m 48 12 l 86 292 l 439 292 l 439 167 l 217 167 l 204 94 q 237 103 212 96 q 290 111 262 111 q 427 67 380 111 q 473 -60 473 23 q 449 -150 473 -106 q 378 -222 426 -194 q 256 -251 330 -251 q 150 -231 201 -251 q 68 -174 100 -210 q 37 -88 37 -137 l 200 -88 q 215 -115 199 -109 q 256 -121 230 -121 q 302 -101 293 -121 q 311 -60 311 -82 q 296 -14 311 -31 q 245 3 280 3 q 197 -6 213 3 q 176 -20 181 -16 l 48 12 z "},"₆":{"ha":523,"x_min":41,"x_max":491,"o":"m 395 306 l 395 174 l 387 174 q 299 166 342 174 q 229 128 256 159 q 202 22 202 96 l 202 -61 q 217 -108 202 -94 q 267 -121 232 -121 q 311 -103 293 -121 q 329 -61 329 -85 q 311 -22 329 -31 q 266 -13 294 -13 q 225 -20 241 -13 q 201 -35 209 -27 q 195 -47 194 -43 l 153 -42 q 170 28 151 -8 q 226 90 188 64 q 321 115 264 115 q 447 67 402 115 q 491 -64 491 19 q 462 -160 491 -117 q 384 -227 433 -202 q 273 -251 335 -251 q 157 -230 210 -251 q 72 -160 104 -209 q 41 -28 41 -111 l 41 5 q 70 152 41 94 q 148 244 100 210 q 253 292 196 278 q 367 306 311 306 l 395 306 z "},"₇":{"ha":523,"x_min":31,"x_max":475,"o":"m 475 201 l 258 -243 l 88 -243 l 305 162 l 31 162 l 31 292 l 475 292 l 475 201 z "},"₈":{"ha":523,"x_min":45,"x_max":477,"o":"m 477 -94 q 417 -212 477 -174 q 262 -251 357 -251 q 107 -212 169 -251 q 45 -94 45 -174 q 108 20 45 -19 q 260 59 170 59 q 416 20 354 59 q 477 -94 477 -19 m 316 -77 q 301 -45 316 -54 q 260 -36 286 -36 q 223 -45 238 -36 q 208 -77 208 -54 q 223 -109 208 -97 q 262 -121 239 -121 q 301 -109 287 -121 q 316 -77 316 -97 m 466 146 q 409 42 466 79 q 262 4 353 4 q 115 42 173 4 q 57 146 57 79 q 115 261 57 222 q 260 300 172 300 q 409 261 351 300 q 466 146 466 222 m 304 134 q 294 161 304 153 q 260 170 284 170 q 229 161 239 170 q 219 134 219 152 q 229 105 219 117 q 262 94 239 94 q 295 105 286 94 q 304 134 304 117 z "},"₉":{"ha":523,"x_min":43,"x_max":477,"o":"m 158 -125 q 238 -121 202 -125 q 295 -91 274 -117 q 316 -1 316 -65 l 316 113 q 302 158 316 146 q 260 170 289 170 q 220 150 235 170 q 205 99 205 129 q 222 56 205 68 q 270 43 238 43 q 304 50 292 43 q 321 62 316 56 q 325 70 326 68 l 374 68 q 354 -2 376 31 q 296 -55 332 -35 q 223 -75 261 -75 q 129 -57 170 -75 q 66 0 89 -39 q 43 102 43 39 q 72 201 43 156 q 150 273 101 245 q 260 300 199 300 q 365 280 315 300 q 446 212 415 260 q 477 79 477 163 l 477 40 q 451 -113 477 -54 q 378 -201 424 -171 q 276 -243 332 -232 q 160 -254 219 -254 l 149 -254 l 149 -125 l 158 -125 z "},"⁰":{"ha":523,"x_min":45,"x_max":478,"o":"m 478 656 q 417 496 478 547 q 262 445 356 445 q 106 496 167 445 q 45 656 45 547 l 45 781 q 105 942 45 889 q 260 995 166 995 q 417 942 355 995 q 478 781 478 889 l 478 656 m 317 783 q 301 848 317 831 q 260 865 286 865 q 221 848 236 865 q 207 783 207 831 l 207 654 q 222 590 207 604 q 262 575 237 575 q 301 590 286 575 q 317 654 317 604 l 317 783 z "},"⁴":{"ha":523,"x_min":36,"x_max":480,"o":"m 480 555 l 47 555 l 36 663 l 269 987 l 395 987 l 259 781 l 186 687 l 480 687 l 480 555 m 430 452 l 268 452 l 268 987 l 430 987 l 430 452 z "},"⁵":{"ha":523,"x_min":37,"x_max":473,"o":"m 48 708 l 86 987 l 439 987 l 439 863 l 217 863 l 204 790 q 237 799 212 792 q 290 806 262 806 q 427 763 380 806 q 473 636 473 719 q 449 546 473 589 q 378 473 426 502 q 256 445 330 445 q 150 465 201 445 q 68 522 100 486 q 37 608 37 559 l 200 608 q 215 581 199 587 q 256 575 230 575 q 302 594 293 575 q 311 635 311 614 q 296 682 311 665 q 245 699 280 699 q 197 690 213 699 q 176 676 181 680 l 48 708 z "},"⁶":{"ha":523,"x_min":41,"x_max":491,"o":"m 395 1002 l 395 869 l 387 869 q 299 862 342 869 q 229 824 256 855 q 202 718 202 792 l 202 635 q 217 588 202 602 q 267 574 232 574 q 311 592 293 574 q 329 635 329 610 q 311 674 329 665 q 266 683 294 683 q 225 676 241 683 q 201 661 209 669 q 195 649 194 652 l 153 654 q 170 724 151 688 q 226 786 188 760 q 321 811 264 811 q 447 763 402 811 q 491 632 491 715 q 462 536 491 578 q 384 469 433 494 q 273 445 335 445 q 157 466 210 445 q 72 536 104 487 q 41 668 41 585 l 41 701 q 70 848 41 789 q 148 940 100 906 q 253 988 196 974 q 367 1002 311 1002 l 395 1002 z "},"⁷":{"ha":523,"x_min":31,"x_max":475,"o":"m 475 897 l 258 452 l 88 452 l 305 858 l 31 858 l 31 987 l 475 987 l 475 897 z "},"⁸":{"ha":523,"x_min":45,"x_max":477,"o":"m 477 602 q 417 484 477 522 q 262 445 357 445 q 107 484 169 445 q 45 602 45 522 q 108 716 45 677 q 260 755 170 755 q 416 716 354 755 q 477 602 477 677 m 316 619 q 301 651 316 642 q 260 660 286 660 q 223 651 238 660 q 208 619 208 642 q 223 587 208 599 q 262 575 239 575 q 301 587 287 575 q 316 619 316 599 m 466 842 q 409 738 466 775 q 262 700 353 700 q 115 738 173 700 q 57 842 57 775 q 115 957 57 918 q 260 996 172 996 q 409 957 351 996 q 466 842 466 918 m 304 830 q 294 857 304 848 q 260 866 284 866 q 229 857 239 866 q 219 830 219 848 q 229 801 219 812 q 262 789 239 789 q 295 801 286 789 q 304 830 304 812 z "},"⁹":{"ha":523,"x_min":43,"x_max":477,"o":"m 158 570 q 238 575 202 570 q 295 605 274 579 q 316 694 316 631 l 316 809 q 302 854 316 842 q 260 866 289 866 q 220 845 235 866 q 205 795 205 825 q 222 751 205 764 q 270 739 238 739 q 304 745 292 739 q 321 758 316 751 q 325 766 326 764 l 374 764 q 354 693 376 726 q 296 641 332 661 q 223 621 261 621 q 129 639 170 621 q 66 696 89 657 q 43 798 43 735 q 72 897 43 852 q 150 968 101 941 q 260 996 199 996 q 365 976 315 996 q 446 907 415 956 q 477 774 477 859 l 477 736 q 451 583 477 642 q 378 494 424 525 q 276 453 332 464 q 160 441 219 441 l 149 441 l 149 570 l 158 570 z "},"­":{"ha":407,"x_min":109,"x_max":524,"o":"m 524 326 l 109 326 l 109 524 l 524 524 l 524 326 z "},"׳":{"ha":356,"x_min":15,"x_max":317,"o":"m 169 571 l 15 629 q 68 735 47 674 q 89 847 89 797 l 89 991 l 317 991 l 316 871 q 297 763 316 819 q 245 656 278 707 q 169 571 212 606 z "},"״":{"ha":724,"x_min":37,"x_max":671,"o":"m 191 571 l 37 629 q 90 735 68 674 q 111 847 111 797 l 111 991 l 338 991 l 338 871 q 319 763 338 819 q 267 656 300 707 q 191 571 234 606 m 523 571 l 368 629 q 421 735 401 674 q 442 847 442 797 l 442 991 l 671 991 l 669 871 q 650 763 669 819 q 598 656 631 707 q 523 571 566 606 z "},"־":{"ha":426,"x_min":41,"x_max":385,"o":"m 385 623 l 41 623 l 41 821 l 385 821 l 385 623 z "},"‏":{"ha":0,"x_min":-727,"x_max":-190,"o":"m -190 960 l -634 960 l -634 801 l -190 801 l -190 960 m -419 694 l -596 924 l -727 881 l -601 694 l -419 694 m -600 1065 l -727 881 l -597 837 l -418 1065 l -600 1065 m -190 890 l -366 890 l -366 -136 l -190 -136 l -190 890 z "},"‎":{"ha":0,"x_min":-627,"x_max":-90,"o":"m -627 960 l -183 960 l -183 801 l -627 801 l -627 960 m -397 694 l -220 924 l -90 881 l -216 694 l -397 694 m -217 1065 l -90 881 l -220 837 l -398 1065 l -217 1065 m -627 890 l -451 890 l -451 -136 l -627 -136 l -627 890 z "},"‍":{"ha":0,"x_min":-629,"x_max":-154,"o":"m -479 784 l -302 784 l -302 -136 l -479 -136 l -479 784 m -283 586 l -629 941 l -500 1064 l -154 708 l -283 586 m -629 708 l -283 1064 l -154 941 l -500 586 l -629 708 z "},"‌":{"ha":0,"x_min":-478,"x_max":-302,"o":"m -478 782 l -302 782 l -302 -136 l -478 -136 l -478 782 z "},"₪":{"ha":1377,"x_min":84,"x_max":1273,"o":"m 409 0 l 409 499 l 644 499 l 644 205 l 819 205 q 973 251 909 204 q 1037 391 1037 298 l 1037 822 l 1272 822 l 1272 397 q 1220 182 1273 271 q 1063 47 1166 94 q 812 0 960 0 l 409 0 m 84 0 l 84 822 l 947 822 l 947 532 q 943 480 947 512 q 930 414 939 448 q 909 353 922 380 l 705 321 l 693 330 q 707 422 701 372 q 712 507 712 472 l 712 617 l 319 617 l 319 0 l 84 0 z "},"﬩":{"ha":741,"x_min":33,"x_max":709,"o":"m 256 818 l 488 818 l 488 569 l 709 569 l 709 357 l 33 357 l 33 569 l 256 569 l 256 818 z "},"̀":{"ha":0,"x_min":-627,"x_max":-233,"o":"m -233 825 l -431 825 l -627 1042 l -369 1042 l -233 825 z "},"́":{"ha":0,"x_min":-475,"x_max":-83,"o":"m -340 1042 l -83 1042 l -276 825 l -475 825 l -340 1042 z "},"̃":{"ha":0,"x_min":-648,"x_max":-117,"o":"m -117 1045 q -137 951 -117 995 q -193 880 -157 907 q -276 852 -229 852 q -331 861 -307 852 q -376 880 -355 869 q -418 899 -397 890 q -465 907 -439 907 q -500 893 -486 907 q -514 850 -514 880 l -648 857 q -628 950 -648 906 q -572 1021 -608 994 q -490 1049 -536 1049 q -440 1041 -464 1049 q -394 1023 -416 1033 q -348 1004 -371 1013 q -301 996 -326 996 q -265 1009 -280 996 q -250 1053 -250 1023 l -117 1045 z "},"ְ":{"ha":0,"x_min":365,"x_max":518,"o":"m 442 -239 q 387 -220 409 -239 q 365 -172 365 -201 q 387 -123 365 -142 q 442 -104 409 -104 q 497 -123 475 -104 q 518 -172 518 -142 q 497 -220 518 -201 q 442 -239 475 -239 m 442 -439 q 387 -419 409 -439 q 365 -371 365 -400 q 387 -322 365 -341 q 442 -303 409 -303 q 497 -322 475 -303 q 518 -371 518 -341 q 497 -419 518 -400 q 442 -439 475 -439 z "},"ֱ":{"ha":0,"x_min":160,"x_max":726,"o":"m 237 -239 q 182 -220 205 -239 q 160 -172 160 -201 q 182 -123 160 -142 q 237 -104 204 -104 q 292 -123 271 -104 q 313 -172 313 -142 q 292 -220 313 -201 q 237 -239 271 -239 m 442 -239 q 387 -220 409 -239 q 365 -172 365 -201 q 387 -123 365 -142 q 442 -104 409 -104 q 497 -123 475 -104 q 518 -172 518 -142 q 497 -220 518 -201 q 442 -239 475 -239 m 650 -239 q 595 -220 617 -239 q 573 -172 573 -201 q 595 -123 573 -142 q 650 -104 616 -104 q 705 -123 684 -104 q 726 -172 726 -142 q 705 -220 726 -201 q 650 -239 684 -239 m 340 -410 q 284 -391 307 -410 q 262 -343 262 -372 q 284 -294 262 -313 q 340 -275 307 -275 q 394 -294 373 -275 q 416 -343 416 -313 q 394 -391 416 -372 q 340 -410 373 -410 m 650 -439 q 595 -419 617 -439 q 573 -371 573 -400 q 595 -322 573 -341 q 650 -303 617 -303 q 705 -322 684 -303 q 726 -371 726 -341 q 705 -419 726 -400 q 650 -439 684 -439 z "},"ֲ":{"ha":0,"x_min":159,"x_max":727,"o":"m 159 -222 l 159 -119 l 513 -119 l 513 -222 l 159 -222 m 651 -439 q 596 -419 618 -439 q 574 -371 574 -400 q 596 -322 574 -341 q 651 -303 618 -303 q 706 -322 684 -303 q 727 -371 727 -341 q 706 -419 727 -400 q 651 -439 684 -439 m 651 -239 q 596 -220 618 -239 q 574 -172 574 -201 q 596 -123 574 -142 q 651 -104 618 -104 q 706 -123 684 -104 q 727 -172 727 -142 q 706 -220 727 -201 q 651 -239 684 -239 z "},"ֳ":{"ha":0,"x_min":159,"x_max":727,"o":"m 334 -441 q 280 -421 302 -441 q 258 -373 258 -402 q 268 -338 258 -353 q 289 -298 278 -323 q 304 -222 300 -273 l 159 -222 l 159 -119 l 512 -119 l 512 -222 l 365 -222 q 380 -298 369 -273 q 401 -338 391 -323 q 411 -373 411 -353 q 390 -421 411 -402 q 334 -441 368 -441 m 651 -439 q 596 -419 618 -439 q 574 -371 574 -400 q 596 -322 574 -341 q 651 -303 618 -303 q 706 -322 684 -303 q 727 -371 727 -341 q 706 -419 727 -400 q 651 -439 684 -439 m 651 -239 q 596 -220 618 -239 q 574 -172 574 -201 q 596 -123 574 -142 q 651 -104 618 -104 q 706 -123 684 -104 q 727 -172 727 -142 q 706 -220 727 -201 q 651 -239 684 -239 z "},"ִ":{"ha":0,"x_min":365,"x_max":518,"o":"m 442 -239 q 387 -220 409 -239 q 365 -172 365 -201 q 387 -123 365 -142 q 442 -104 409 -104 q 497 -123 475 -104 q 518 -172 518 -142 q 497 -220 518 -201 q 442 -239 475 -239 z "},"ֵ":{"ha":0,"x_min":262,"x_max":620,"o":"m 544 -239 q 489 -220 511 -239 q 467 -172 467 -201 q 489 -123 467 -142 q 544 -104 511 -104 q 598 -123 577 -104 q 620 -172 620 -142 q 598 -220 620 -201 q 544 -239 577 -239 m 340 -239 q 284 -220 307 -239 q 262 -172 262 -201 q 284 -123 262 -142 q 340 -104 307 -104 q 394 -123 373 -104 q 416 -172 416 -142 q 394 -220 416 -201 q 340 -239 373 -239 z "},"ֶ":{"ha":0,"x_min":262,"x_max":620,"o":"m 544 -239 q 489 -220 511 -239 q 467 -172 467 -201 q 489 -123 467 -142 q 544 -104 511 -104 q 598 -123 577 -104 q 620 -172 620 -142 q 598 -220 620 -201 q 544 -239 577 -239 m 442 -410 q 387 -391 409 -410 q 365 -343 365 -372 q 387 -294 365 -313 q 442 -275 409 -275 q 497 -294 475 -275 q 518 -343 518 -313 q 497 -391 518 -372 q 442 -410 475 -410 m 340 -239 q 284 -220 307 -239 q 262 -172 262 -201 q 284 -123 262 -142 q 340 -104 307 -104 q 394 -123 373 -104 q 416 -172 416 -142 q 394 -220 416 -201 q 340 -239 373 -239 z "},"ַ":{"ha":0,"x_min":267,"x_max":616,"o":"m 267 -222 l 267 -119 l 616 -119 l 616 -222 l 267 -222 z "},"ָ":{"ha":0,"x_min":290,"x_max":593,"o":"m 441 -415 q 387 -396 409 -415 q 365 -348 365 -377 q 375 -313 365 -327 q 396 -279 385 -299 q 411 -222 407 -260 l 290 -222 l 290 -119 l 593 -119 l 593 -222 l 471 -222 q 487 -279 476 -260 q 508 -313 498 -299 q 518 -348 518 -327 q 497 -396 518 -377 q 441 -415 475 -415 z "},"ׇ":{"ha":0,"x_min":290,"x_max":593,"o":"m 441 -442 q 387 -423 409 -442 q 366 -375 366 -404 q 380 -333 366 -349 q 404 -285 394 -317 q 409 -256 408 -275 q 411 -222 411 -237 l 290 -222 l 290 -119 l 593 -119 l 593 -222 l 471 -222 q 474 -254 471 -234 q 479 -285 476 -274 q 504 -334 490 -317 q 517 -375 517 -350 q 496 -423 517 -404 q 441 -442 475 -442 z "},"ֹ":{"ha":0,"x_min":142,"x_max":296,"o":"m 220 924 q 164 943 186 924 q 142 991 142 962 q 164 1041 142 1021 q 220 1060 186 1060 q 275 1041 254 1060 q 296 991 296 1021 q 275 943 296 962 q 220 924 254 924 z "},"ֺ":{"ha":0,"x_min":142,"x_max":296,"o":"m 220 924 q 164 943 186 924 q 142 991 142 962 q 164 1041 142 1021 q 220 1060 186 1060 q 275 1041 254 1060 q 296 991 296 1021 q 275 943 296 962 q 220 924 254 924 z "},"ֻ":{"ha":0,"x_min":365,"x_max":720,"o":"m 441 -239 q 387 -220 409 -239 q 365 -172 365 -201 q 387 -123 365 -142 q 441 -104 408 -104 q 497 -123 475 -104 q 518 -172 518 -142 q 497 -220 518 -201 q 441 -239 475 -239 m 644 -585 q 589 -566 611 -585 q 567 -517 567 -547 q 589 -468 567 -488 q 644 -449 611 -449 q 699 -468 677 -449 q 720 -517 720 -488 q 699 -566 720 -547 q 644 -585 677 -585 m 543 -412 q 488 -393 510 -412 q 466 -345 466 -374 q 488 -296 466 -315 q 543 -277 510 -277 q 597 -297 576 -277 q 619 -345 619 -317 q 597 -393 619 -374 q 543 -412 576 -412 z "},"ּ":{"ha":0,"x_min":155,"x_max":309,"o":"m 233 342 q 177 361 199 342 q 155 410 155 380 q 177 458 155 439 q 233 477 199 477 q 288 458 267 477 q 309 410 309 439 q 288 361 309 380 q 233 342 267 342 z "},"ֿ":{"ha":0,"x_min":143,"x_max":571,"o":"m 143 930 l 143 1056 l 571 1056 l 571 930 l 143 930 z "},"ׁ":{"ha":0,"x_min":920,"x_max":1074,"o":"m 998 924 q 943 943 965 924 q 920 991 920 962 q 943 1041 920 1021 q 998 1060 965 1060 q 1053 1041 1031 1060 q 1074 991 1074 1021 q 1053 943 1074 962 q 998 924 1031 924 z "},"ׂ":{"ha":0,"x_min":133,"x_max":287,"o":"m 210 924 q 155 943 177 924 q 133 991 133 962 q 155 1041 133 1021 q 210 1060 177 1060 q 265 1041 243 1060 q 287 991 287 1021 q 265 943 287 962 q 210 924 243 924 z "},"ﬅ":{"ha":928,"x_min":5,"x_max":918,"o":"m 286 557 l 5 557 l 5 734 l 286 734 l 286 557 m 408 1056 q 624 1029 528 1056 q 790 980 720 1002 l 790 841 l 546 841 l 546 844 q 508 853 536 848 q 439 859 481 859 q 376 841 398 859 q 355 788 355 823 l 355 0 l 110 0 l 110 788 q 188 987 110 918 q 408 1056 267 1056 m 907 557 l 456 557 l 456 734 l 907 734 l 907 557 m 790 916 l 790 253 q 796 213 790 227 q 818 192 802 198 q 862 186 834 186 q 894 186 881 186 q 918 189 907 187 l 917 7 q 854 -8 886 -3 q 784 -14 822 -14 q 655 11 708 -14 q 574 86 602 35 q 546 218 546 137 l 546 916 l 790 916 z "},"ﬆ":{"ha":1206,"x_min":20,"x_max":1194,"o":"m 566 505 q 497 652 531 593 q 440 758 463 711 q 418 858 418 806 q 451 960 418 913 q 553 1034 484 1006 q 728 1062 622 1062 q 884 1042 819 1062 q 989 986 948 1022 q 1048 902 1029 950 q 1067 796 1067 853 l 823 796 q 805 858 823 838 q 763 884 787 878 q 720 891 739 891 q 662 875 682 891 q 634 836 642 859 q 626 792 626 813 q 633 721 626 753 q 651 658 641 689 q 668 590 661 627 q 675 505 675 553 l 566 505 m 1184 557 l 732 557 l 732 734 l 1184 734 l 1184 557 m 1067 796 l 1067 249 q 1082 200 1067 214 q 1138 186 1097 186 q 1171 186 1158 186 q 1194 189 1183 187 l 1194 7 q 1131 -8 1163 -3 q 1061 -14 1098 -14 q 885 48 947 -14 q 823 247 823 109 l 823 796 l 1067 796 m 439 210 q 427 237 439 227 q 385 258 415 248 q 301 279 355 268 q 172 324 231 295 q 78 399 113 353 q 43 510 43 445 q 79 627 43 573 q 183 714 115 682 q 349 747 252 747 q 523 717 450 747 q 636 632 596 686 q 675 505 675 578 l 431 505 q 413 564 431 545 q 349 582 395 582 q 312 575 330 582 q 284 555 295 568 q 274 523 274 543 q 287 493 274 506 q 324 470 299 479 q 388 454 349 460 q 526 418 460 442 q 633 346 591 393 q 674 216 674 298 q 634 99 674 151 q 522 17 595 47 q 349 -14 448 -14 q 168 25 241 -14 q 57 122 95 64 q 20 240 20 181 l 248 240 q 262 192 249 211 q 299 162 275 172 q 355 153 323 153 q 401 159 383 153 q 429 179 420 166 q 439 210 439 192 z "}}}
